<?xml version="1.0" encoding="UTF-8"?>
<svg version="1.1" xmlns="http://www.w3.org/2000/svg" width="333" height="342">
<path d="M0 0 C109.89 0 219.78 0 333 0 C333 112.86 333 225.72 333 342 C223.11 342 113.22 342 0 342 C0 229.14 0 116.28 0 0 Z " fill="#FEFEFF" transform="translate(0,0)"/>
<path d="M0 0 C0.82435431 -0.00445784 1.64870862 -0.00891569 2.49804336 -0.01350862 C3.85619219 -0.01323207 3.85619219 -0.01323207 5.24177837 -0.01294994 C6.68485073 -0.01846498 6.68485073 -0.01846498 8.15707606 -0.02409142 C11.39516963 -0.0351439 14.63323113 -0.03897474 17.87134075 -0.04278088 C20.18714278 -0.04904426 22.5029438 -0.05569094 24.81874371 -0.0626936 C31.12041735 -0.08011293 37.42208339 -0.09065755 43.72377515 -0.09889913 C47.65847516 -0.10404647 51.59317279 -0.11012227 55.52787113 -0.11641026 C66.42163645 -0.13327965 77.31539885 -0.1479153 88.20917511 -0.155159 C91.03569127 -0.15706888 93.86220743 -0.15898922 96.68872356 -0.16094494 C97.39123828 -0.16142868 98.093753 -0.16191242 98.81755605 -0.16241082 C110.20091531 -0.1707133 121.58416956 -0.19605473 132.96748296 -0.22852562 C144.65419918 -0.26159028 156.34085658 -0.27927432 168.02761954 -0.28280324 C174.58948131 -0.2851574 181.15117704 -0.29416579 187.71299458 -0.31926441 C193.88454772 -0.34248897 200.05582485 -0.34680087 206.22741032 -0.33650303 C208.49377007 -0.33600622 210.76014315 -0.34236913 213.0264616 -0.35605907 C216.11834256 -0.37369249 219.20922373 -0.36671353 222.30110455 -0.35352612 C223.19984494 -0.36449536 224.09858533 -0.37546461 225.02456027 -0.38676625 C230.57438156 -0.32953998 233.78272641 0.36009285 237.96191692 4.13422108 C238.58366986 8.56421076 238.45924181 10.38823374 235.96191692 14.13422108 C233.23897027 15.04186996 231.65451964 15.26224777 228.85577774 15.27123547 C227.59649581 15.27884728 227.59649581 15.27884728 226.31177384 15.28661287 C225.38941325 15.28711063 224.46705266 15.28760838 223.51674175 15.28812122 C222.53694817 15.29250348 221.5571546 15.29688573 220.5476703 15.30140078 C217.24963406 15.31480398 213.95162455 15.32097099 210.65356731 15.32709217 C208.29511169 15.33499172 205.93665728 15.34326057 203.57820415 15.35187244 C196.49150802 15.37583783 189.40481104 15.39101918 182.31808701 15.40393251 C179.6503123 15.4088816 176.98253864 15.41432966 174.31476485 15.41974782 C162.55865959 15.44344935 150.80255231 15.46363891 139.04642868 15.47541332 C136.16970662 15.47834305 133.2929846 15.48130472 130.41626263 15.48431873 C129.70126083 15.48506478 128.98625903 15.48581083 128.24959051 15.48657949 C116.65792667 15.4992427 105.06641589 15.53248003 93.47482366 15.57412057 C81.57793778 15.61650823 69.68113035 15.64010443 57.78416914 15.64533389 C51.10274113 15.64875101 44.42152088 15.66110664 37.74016285 15.69343662 C31.45859243 15.72339718 25.17744047 15.72987194 18.89581394 15.71805286 C16.58668112 15.71783115 14.27752954 15.72621673 11.96846294 15.7437067 C8.82315633 15.76623985 5.67938769 15.75817666 2.53407574 15.74222279 C1.61394587 15.75610487 0.693816 15.76998696 -0.25419658 15.78428972 C-6.41985944 15.70688706 -6.41985944 15.70688706 -9.605093 12.75637722 C-11.21711519 9.80661925 -11.71369395 8.4278241 -11.03808308 5.13422108 C-7.83088816 1.15287566 -5.01626294 0.01259183 0 0 Z " fill="#BFD9FF" transform="translate(49.03808307647705,251.86577892303467)"/>
<path d="M0 0 C0.79757721 -0.0071553 1.59515442 -0.01431061 2.41690063 -0.02168274 C4.09953701 -0.0294454 5.78227443 -0.02447779 7.46484375 -0.00756836 C10.02539553 0.01161635 12.58048322 -0.02769217 15.140625 -0.07226562 C16.7812532 -0.07255612 18.42188633 -0.06941279 20.0625 -0.0625 C20.82001556 -0.07778244 21.57753113 -0.09306488 22.35800171 -0.10881042 C27.49743445 0.00251858 30.63060149 1.31886303 34.34814453 4.91835022 C36.59033718 7.95277214 36.554301 10.62845202 36.55859375 14.328125 C36.56291916 15.04024643 36.56724457 15.75236786 36.57170105 16.48606873 C36.57208055 17.98291124 36.55514122 19.47984876 36.52172852 20.97631836 C36.47657713 23.26097847 36.50100988 25.53752803 36.53320312 27.82226562 C36.52498409 29.28258134 36.51275029 30.74288115 36.49609375 32.203125 C36.48296143 33.52127197 36.4698291 34.83941895 36.45629883 36.19750977 C35.36486718 41.0216713 33.77875581 42.05598002 29.6640625 44.69921875 C25.56824643 44.84045379 23.58521722 44.49416543 20.46875 41.8046875 C17.80342797 37.21825673 18.23248119 33.08622974 18.4140625 27.88671875 C18.43210937 26.90767578 18.45015625 25.92863281 18.46875 24.91992188 C18.51573363 22.51201104 18.58140556 20.1061254 18.6640625 17.69921875 C17.87233643 17.72540283 17.08061035 17.75158691 16.26489258 17.77856445 C12.66898533 17.88265997 9.07339519 17.94758775 5.4765625 18.01171875 C4.23068359 18.05361328 2.98480469 18.09550781 1.70117188 18.13867188 C-8.6061486 18.27683971 -8.6061486 18.27683971 -11.66015625 15.3984375 C-13.88765429 11.81055605 -14.07708541 9.84964703 -13.3359375 5.69921875 C-9.49905843 0.61324198 -6.07778546 -0.05573775 0 0 Z " fill="#C0D9FF" transform="translate(253.3359375,164.30078125)"/>
<path d="M0 0 C2.49133014 0.05494504 4.97931694 0.06152724 7.47119141 0.06079102 C9.06366809 0.0755345 10.65612226 0.09301863 12.24853516 0.11352539 C12.9882254 0.11686386 13.72791565 0.12020233 14.49002075 0.12364197 C18.92483397 0.24528618 21.83685728 0.8812824 25.36572266 3.61743164 C26.93507859 6.75614352 26.71773368 9.15598986 26.36572266 12.61743164 C24.71717741 15.30940905 24.0928079 16.22239139 21.36572266 17.61743164 C16.74899269 18.2422148 12.201061 18.08622212 7.55322266 17.92993164 C6.28800781 17.90737305 5.02279297 17.88481445 3.71923828 17.86157227 C0.60019647 17.80272242 -2.51643637 17.72054534 -5.63427734 17.61743164 C-5.60809326 18.2273999 -5.58190918 18.83736816 -5.55493164 19.46582031 C-5.45062016 22.24525922 -5.38584752 25.02428603 -5.32177734 27.80493164 C-5.27988281 28.76463867 -5.23798828 29.7243457 -5.19482422 30.71313477 C-5.07155066 37.83834625 -5.07155066 37.83834625 -7.89990234 41.75415039 C-12.04377242 44.57790186 -13.70623863 44.39966001 -18.63427734 43.61743164 C-21.53621242 40.87605511 -22.54307846 39.16765836 -23.19946289 35.20751953 C-23.33087905 28.10252481 -23.33087905 28.10252481 -23.32055664 24.89794922 C-23.32177292 22.68797195 -23.3815844 20.48459921 -23.44482422 18.27563477 C-23.61067689 6.52370506 -23.61067689 6.52370506 -20.22412109 2.64868164 C-14.46695437 -1.0077885 -6.58365946 -0.15054695 0 0 Z " fill="#BFD9FF" transform="translate(63.63427734375,165.382568359375)"/>
<path d="M0 0 C3.71572866 1.42304502 5.41074287 3.05514735 7.9375 6.125 C8.55273438 9.3671875 8.55273438 9.3671875 8.53125 13 C8.52867187 14.31484375 8.52609375 15.6296875 8.5234375 16.984375 C8.50893555 17.66435547 8.49443359 18.34433594 8.47949219 19.04492188 C8.43761193 21.11945557 8.43842899 23.1907394 8.4453125 25.265625 C8.33391221 36.62845427 8.33391221 36.62845427 4.9375 41.125 C1.06603249 43.70597834 -2.21559919 43.46676303 -6.7109375 43.49609375 C-7.98525131 43.50963646 -7.98525131 43.50963646 -9.28530884 43.52345276 C-11.08242264 43.53795742 -12.87958928 43.54684254 -14.67675781 43.55053711 C-17.42083137 43.56242777 -20.1626515 43.61160312 -22.90625 43.66210938 C-24.65363487 43.67157457 -26.40103354 43.67880914 -28.1484375 43.68359375 C-29.3752272 43.71289223 -29.3752272 43.71289223 -30.62680054 43.74278259 C-34.91966236 43.70893129 -36.57665762 43.50176531 -40.08447266 40.78149414 C-42.0625 38.125 -42.0625 38.125 -42.625 35.0625 C-41.94058796 31.48834823 -40.91431131 30.32496872 -38.0625 28.125 C-34.82498322 27.04582774 -32.48498229 27.01074399 -29.08203125 27.02734375 C-27.91865234 27.03056641 -26.75527344 27.03378906 -25.55664062 27.03710938 C-24.34169922 27.04548828 -23.12675781 27.05386719 -21.875 27.0625 C-20.64845703 27.06701172 -19.42191406 27.07152344 -18.15820312 27.07617188 C-15.12625332 27.08796935 -12.09440094 27.10443079 -9.0625 27.125 C-9.0939209 26.48473877 -9.1253418 25.84447754 -9.15771484 25.18481445 C-9.28283061 22.26940587 -9.36059065 19.35456191 -9.4375 16.4375 C-9.48777344 15.43009766 -9.53804688 14.42269531 -9.58984375 13.38476562 C-9.73412828 6.09839704 -9.73412828 6.09839704 -7.80786133 3.30664062 C-5.2124809 1.03462829 -3.45666929 0.14108854 0 0 Z " fill="#BFD8FF" transform="translate(279.0625,281.875)"/>
<path d="M0 0 C1.12921875 0.04640625 1.12921875 0.04640625 2.28125 0.09375 C3.0340625 0.1040625 3.786875 0.114375 4.5625 0.125 C7.37848181 0.71992573 8.7007457 1.60401861 10.78125 3.59375 C11.23535156 6.0456543 11.23535156 6.0456543 11.171875 8.91796875 C11.15253906 10.46000977 11.15253906 10.46000977 11.1328125 12.03320312 C11.09929688 13.10505859 11.06578125 14.17691406 11.03125 15.28125 C11.01320313 16.36470703 10.99515625 17.44816406 10.9765625 18.56445312 C10.92938508 21.24177146 10.86357249 23.91731909 10.78125 26.59375 C11.60326904 26.56756592 12.42528809 26.54138184 13.2722168 26.5144043 C17.00419938 26.4103356 20.7358766 26.34538872 24.46875 26.28125 C26.40911133 26.2184082 26.40911133 26.2184082 28.38867188 26.15429688 C30.25942383 26.13012695 30.25942383 26.13012695 32.16796875 26.10546875 C33.31483154 26.07928467 34.46169434 26.05310059 35.64331055 26.02612305 C39.75239745 26.76942244 41.20893186 28.3785739 43.78125 31.59375 C44.40625 34.59375 44.40625 34.59375 43.78125 37.59375 C41.78895994 40.24768801 40.18378199 42.2514813 36.85717773 43.06329346 C34.53665769 43.25530506 32.26581815 43.28684858 29.9375 43.2578125 C28.66743103 43.26498795 28.66743103 43.26498795 27.3717041 43.27230835 C25.5864882 43.27570175 23.80120968 43.26653841 22.01611328 43.24560547 C19.28927577 43.21882881 16.5665538 43.24536898 13.83984375 43.27734375 C12.10155345 43.27403955 10.3632657 43.26763309 8.625 43.2578125 C7.81341431 43.26793365 7.00182861 43.27805481 6.16564941 43.28848267 C1.86367377 43.19976987 0.25770368 42.97878744 -3.20898438 40.17724609 C-7.31222624 34.90264631 -6.47733463 29.31532764 -6.51391602 22.90014648 C-6.53110234 20.79929948 -6.57498599 18.70003799 -6.61914062 16.59960938 C-6.62927052 15.25782405 -6.6377857 13.91602536 -6.64453125 12.57421875 C-6.65911377 11.35629639 -6.67369629 10.13837402 -6.6887207 8.88354492 C-6.07301773 4.57362411 -4.42558338 1.18431105 0 0 Z " fill="#BFD8FF" transform="translate(44.21875,282.40625)"/>
<path d="M0 0 C2.8125 2.4375 2.8125 2.4375 5 5 C5.33 5.33 5.66 5.66 6 6 C6.11859611 7.34878093 6.17000302 8.7035813 6.19287109 10.05737305 C6.21696548 11.34958015 6.21696548 11.34958015 6.24154663 12.66789246 C6.28594226 16.62681415 6.32709221 20.58556511 6.35009766 24.54467773 C6.36662919 26.63105445 6.39388199 28.71737518 6.43212891 30.8034668 C6.48700077 33.81068325 6.5087909 36.81656849 6.5234375 39.82421875 C6.54610687 40.75256027 6.56877625 41.68090179 6.59213257 42.63737488 C6.57776844 47.0586082 6.42955958 50.0652947 3.59619141 53.58837891 C1 56 1 56 -1.0625 56.76171875 C-2.0215625 56.72498047 -2.0215625 56.72498047 -3 56.6875 C-3.9590625 56.69330078 -3.9590625 56.69330078 -4.9375 56.69921875 C-8.36401167 55.53757938 -9.77912448 53.85541138 -12 51 C-12.75547703 47.54498083 -12.72474743 44.15123434 -12.69921875 40.625 C-12.70637405 39.62291504 -12.71352936 38.62083008 -12.72090149 37.58837891 C-12.72867202 35.47364186 -12.72368013 33.35882448 -12.70678711 31.24414062 C-12.68756052 28.01017895 -12.72695541 24.78051404 -12.77148438 21.546875 C-12.77177474 19.48958078 -12.76863466 17.43228262 -12.76171875 15.375 C-12.77700119 14.41029785 -12.79228363 13.4455957 -12.80802917 12.45166016 C-12.69511138 5.94063503 -12.69511138 5.94063503 -10.72085571 3.26904297 C-7.22425958 0.21286219 -4.56880341 -0.97208583 0 0 Z " fill="#C1D9FF" transform="translate(166,188)"/>
<path d="M0 0 C2.69990662 1.79993774 4.5418865 3.083773 6 6 C6.10917158 7.39256305 6.15896101 8.79004828 6.17700195 10.18676758 C6.18983719 11.05139114 6.20267242 11.91601471 6.21589661 12.80683899 C6.22328354 13.74327744 6.23067047 14.67971588 6.23828125 15.64453125 C6.25038887 17.08743782 6.25038887 17.08743782 6.26274109 18.55949402 C6.2765861 20.59799393 6.28730638 22.63651706 6.29516602 24.67504883 C6.31237389 27.78967336 6.35625577 30.90323518 6.40039062 34.01757812 C6.41051791 35.99738802 6.4190339 37.97720695 6.42578125 39.95703125 C6.44328934 40.887397 6.46079742 41.81776276 6.47883606 42.77632141 C6.46454163 47.04710723 6.39386696 49.36513035 4.09838867 53.06518555 C1.35634243 55.59348299 0.39472336 55.95614185 -3.375 56.375 C-7 56 -7 56 -9.375 53.625 C-11.3914672 50.3676299 -12.12704275 48.68268645 -12.17700195 44.9050293 C-12.18983719 44.06042648 -12.20267242 43.21582367 -12.21589661 42.34562683 C-12.22328354 41.43106216 -12.23067047 40.5164975 -12.23828125 39.57421875 C-12.246353 38.63447708 -12.25442474 37.69473541 -12.26274109 36.72651672 C-12.27658553 34.7350957 -12.28730607 32.7436509 -12.29516602 30.75219727 C-12.31237279 27.70999032 -12.35625482 24.66887175 -12.40039062 21.62695312 C-12.41051804 19.69271633 -12.41903399 17.75847029 -12.42578125 15.82421875 C-12.44328934 14.91572678 -12.46079742 14.0072348 -12.47883606 13.07121277 C-12.46437555 8.8497646 -12.37662035 6.60436228 -10.09838867 2.94848633 C-6.73291848 -0.17656517 -4.556991 -0.44676382 0 0 Z " fill="#C0D9FF" transform="translate(208,189)"/>
<path d="M0 0 C4.56192149 0.81462884 5.74038064 1.90844162 8.5 5.625 C9.22852483 9.1693744 9.17723982 12.64585034 9.12890625 16.25390625 C9.13131821 17.28055893 9.13373016 18.30721161 9.13621521 19.36497498 C9.13523742 21.53103506 9.12186011 23.69712034 9.09692383 25.86303711 C9.0625804 29.17973561 9.07627804 32.49377472 9.09570312 35.81054688 C9.08880559 37.91667801 9.07913405 40.02280228 9.06640625 42.12890625 C9.07136612 43.12064346 9.07632599 44.11238068 9.08143616 45.13417053 C8.9647871 51.94421278 8.9647871 51.94421278 6.71069336 55.24584961 C4.04782496 56.90709131 1.71035547 57.14870568 -1.40234375 57.25390625 C-4.89828566 56.20577469 -6.27051654 54.50076946 -8.5 51.625 C-9.2447081 48.16837551 -9.20104871 44.77535642 -9.1640625 41.25 C-9.16884613 40.24791504 -9.17362976 39.24583008 -9.17855835 38.21337891 C-9.18195478 36.09861681 -9.17277041 33.98380202 -9.15185547 31.86914062 C-9.12508713 28.63552579 -9.15161293 25.4053821 -9.18359375 22.171875 C-9.18028961 20.11457569 -9.17388328 18.05727853 -9.1640625 16 C-9.17418365 15.03529785 -9.18430481 14.0705957 -9.19473267 13.07666016 C-9.11445816 8.47008331 -9.00196067 6.29695408 -6.17724609 2.515625 C-3.5 0.625 -3.5 0.625 0 0 Z " fill="#BFD9FF" transform="translate(80.5,187.375)"/>
<path d="M0 0 C2.69990662 1.79993774 4.5418865 3.083773 6 6 C6.10419243 7.39273041 6.14862088 8.79020125 6.16113281 10.18676758 C6.17074036 11.05139114 6.1803479 11.91601471 6.19024658 12.80683899 C6.19449646 13.74327744 6.19874634 14.67971588 6.203125 15.64453125 C6.20882507 16.60646896 6.21452515 17.56840668 6.22039795 18.55949402 C6.22985513 20.59800107 6.23638477 22.63652347 6.24023438 24.67504883 C6.2499284 27.78949805 6.28094038 30.90328421 6.3125 34.01757812 C6.31903116 35.99739191 6.32428119 37.97721042 6.328125 39.95703125 C6.3404718 40.887397 6.3528186 41.81776276 6.36553955 42.77632141 C6.34880708 47.64970997 6.25072096 51.08004206 3 55 C-0.13400885 56.56700442 -3.63155095 56.85164561 -7 56 C-10.37562633 52.98802981 -11.27919561 50.55894214 -11.53344727 46.18139648 C-11.5665051 44.24487989 -11.57611224 42.30786817 -11.56640625 40.37109375 C-11.57260483 39.34444107 -11.57880341 38.31778839 -11.58518982 37.26002502 C-11.59228124 35.09401395 -11.58912588 32.92794829 -11.57641602 30.76196289 C-11.56253186 27.44511013 -11.59665491 24.13106851 -11.63476562 20.81445312 C-11.63571666 18.70833264 -11.63385885 16.60220862 -11.62890625 14.49609375 C-11.64216446 13.50435654 -11.65542267 12.51261932 -11.66908264 11.49082947 C-11.57625441 4.64313414 -11.57625441 4.64313414 -8.64819336 1.37524414 C-5.38813424 -0.31775051 -3.62640337 -0.60440056 0 0 Z " fill="#BFD8FF" transform="translate(248,189)"/>
<path d="M0 0 C2.85467753 2.02867974 4.70323825 3.63524844 5.46759033 7.15036011 C5.66279527 9.81963327 5.69288829 12.44478377 5.6640625 15.12109375 C5.66884613 16.09861099 5.67362976 17.07612823 5.67855835 18.08326721 C5.6819547 20.14675509 5.67277087 22.21029697 5.65185547 24.27368164 C5.6251153 27.42391669 5.65159781 30.57057946 5.68359375 33.72070312 C5.68028904 35.7291745 5.67388155 37.73764366 5.6640625 39.74609375 C5.67418365 40.68376083 5.68430481 41.62142792 5.69473267 42.58750916 C5.61684892 46.9575834 5.42277822 50.07417955 2.67724609 53.59399414 C0 56 0 56 -3.5 56.75 C-7.24742482 55.9469804 -8.63184233 54.9502604 -10.96551514 51.95806885 C-13.03281003 48.04510127 -12.70959678 43.82319991 -12.6640625 39.4921875 C-12.66884613 38.48914581 -12.67362976 37.48610413 -12.67855835 36.45266724 C-12.68195083 34.33968531 -12.67279422 32.22665043 -12.65185547 30.11376953 C-12.62502526 26.87804613 -12.65165523 23.64577385 -12.68359375 20.41015625 C-12.68029064 18.35415901 -12.67388645 16.29816392 -12.6640625 14.2421875 C-12.67418365 13.27546112 -12.68430481 12.30873474 -12.69473267 11.31271362 C-12.57819459 4.64844821 -12.57819459 4.64844821 -9.67724609 1.39501953 C-6.10948337 -0.46401715 -3.97059108 -0.63813071 0 0 Z " fill="#BED8FF" transform="translate(126,189)"/>
<path d="M0 0 C4.084128 2.39720556 5.57449636 4.56649528 7 9 C7.89699865 18.30781718 6.93017143 24.65788299 1 32 C2.65 31.67 4.3 31.34 6 31 C6 32.98 6 34.96 6 37 C-1.4422658 37.36601307 -1.4422658 37.36601307 -4 35.6875 C-5 34 -5 34 -5 31 C-5.7425 30.9175 -6.485 30.835 -7.25 30.75 C-10.56604529 29.84562401 -11.83531391 28.6285474 -14 26 C-15.18813473 22.43559582 -15.24187953 19.44525218 -15.3125 15.6875 C-15.34988281 14.39199219 -15.38726562 13.09648437 -15.42578125 11.76171875 C-14.93349234 7.41241402 -13.75254341 5.35760701 -11 2 C-7.30390328 -0.46406448 -4.28972609 -0.67864807 0 0 Z " fill="#C0D9FF" transform="translate(145,10)"/>
<path d="M0 0 C0.75539063 0.09152344 1.51078125 0.18304688 2.2890625 0.27734375 C5.05444648 1.31824671 5.82862934 2.56738594 7.375 5.0625 C7.98132469 8.54144821 7.8388154 12.03623683 7.8125 15.5625 C7.8424707 16.98755859 7.8424707 16.98755859 7.87304688 18.44140625 C7.86819782 25.33676374 7.86819782 25.33676374 5.59375 28.68359375 C2.9265743 30.3411871 0.58757731 30.58613059 -2.52734375 30.69140625 C-6.05894554 29.63258337 -7.44239472 28.01368082 -9.625 25.0625 C-10.3506608 21.71035541 -10.32430362 18.48046668 -10.25 15.0625 C-10.26933594 14.17304688 -10.28867188 13.28359375 -10.30859375 12.3671875 C-10.27499822 7.86538669 -10.06697417 5.6755857 -7.375 1.94140625 C-4.44619679 -0.05966526 -3.43898119 -0.52589231 0 0 Z " fill="#C0D9FF" transform="translate(81.625,273.9375)"/>
<path d="M0 0 C3.50808494 1.11056693 4.91176347 2.71721046 7.09765625 5.6640625 C7.84767971 9.01523113 7.84219658 12.24164244 7.78515625 15.6640625 C7.81287109 16.55351562 7.84058594 17.44296875 7.86914062 18.359375 C7.84563658 24.6584588 7.84563658 24.6584588 5.82104492 27.38037109 C3.31938283 29.55589804 1.28290158 30.62625733 -1.96484375 31.2890625 C-6.08269696 30.41292352 -7.35197291 29.01089467 -9.90234375 25.6640625 C-10.61012021 22.3126092 -10.5563529 19.07710642 -10.46484375 15.6640625 C-10.47580078 14.77460938 -10.48675781 13.88515625 -10.49804688 12.96875 C-10.45111896 8.77652327 -10.24714903 6.25881397 -8.11328125 2.578125 C-5.46923623 0.28911076 -3.4603561 0.06879436 0 0 Z " fill="#C0D9FF" transform="translate(247.90234375,273.3359375)"/>
<path d="M0 0 C2.31 0 4.62 0 7 0 C7.33 7.92 7.66 15.84 8 24 C9.32 24.33 10.64 24.66 12 25 C13.71443219 23.28556781 13.23052967 20.99554759 13.31640625 18.65234375 C13.35830078 17.57275391 13.40019531 16.49316406 13.44335938 15.38085938 C13.48267578 14.24455078 13.52199219 13.10824219 13.5625 11.9375 C13.60568359 10.79732422 13.64886719 9.65714844 13.69335938 8.48242188 C13.79982839 5.65507805 13.90184207 2.82764262 14 0 C16.31 0 18.62 0 21 0 C21.05859857 3.35409194 21.09379582 6.70805017 21.125 10.0625 C21.14175781 11.00544922 21.15851563 11.94839844 21.17578125 12.91992188 C21.26424008 25.61376422 21.26424008 25.61376422 17.1875 29.91015625 C13.25501064 31.86937863 9.27621078 31.66170982 5 31 C2.42362529 29.11484777 1.40332572 27.80665143 0 25 C-0.084915 23.1136088 -0.107193 21.22421485 -0.09765625 19.3359375 C-0.09443359 18.21445312 -0.09121094 17.09296875 -0.08789062 15.9375 C-0.07951172 14.761875 -0.07113281 13.58625 -0.0625 12.375 C-0.05798828 11.19164062 -0.05347656 10.00828125 -0.04882812 8.7890625 C-0.03701467 5.85932493 -0.02054258 2.92968728 0 0 Z " fill="#C3DBFF" transform="translate(176,10)"/>
<path d="M0 0 C4.62 0 9.24 0 14 0 C18 4 18 4 18.375 7.9375 C18.26042442 10.63749854 17.97048365 12.06369318 16.8125 14.5625 C15.56676845 18.29969466 17.37138387 20.55485049 19 24 C19 25.32 19 26.64 19 28 C17.02 28 15.04 28 13 28 C10 21.5 10 21.5 10 17 C8.68 17 7.36 17 6 17 C6 20.63 6 24.26 6 28 C4.02 28 2.04 28 0 28 C0 18.76 0 9.52 0 0 Z " fill="#C1D9FF" transform="translate(116,61)"/>
<path d="M0 0 C6.27 0 12.54 0 19 0 C19 1.98 19 3.96 19 6 C15.04 6 11.08 6 7 6 C7 7.98 7 9.96 7 12 C10.3 12 13.6 12 17 12 C17 13.98 17 15.96 17 18 C13.7 18 10.4 18 7 18 C7 20.31 7 22.62 7 25 C10.96 25 14.92 25 19 25 C19 26.98 19 28.96 19 31 C12.73 31 6.46 31 0 31 C0 20.77 0 10.54 0 0 Z " fill="#C3DBFF" transform="translate(221,10)"/>
<path d="M0 0 C2.31 0 4.62 0 7 0 C8.15387809 3.85180418 9.29664728 7.70681969 10.4375 11.5625 C10.92573242 13.19155273 10.92573242 13.19155273 11.42382812 14.85351562 C13.01053936 20.23524756 14.43081426 25.41235971 15 31 C12.69 31 10.38 31 8 31 C7.67 28.69 7.34 26.38 7 24 C4.36 24 1.72 24 -1 24 C-1.33 26.31 -1.66 28.62 -2 31 C-3.98 31 -5.96 31 -8 31 C-7.40316369 24.00608717 -5.54772419 17.67750149 -3.4375 11 C-3.10814453 9.93910156 -2.77878906 8.87820312 -2.43945312 7.78515625 C-1.63228221 5.18817156 -0.81901131 2.59326993 0 0 Z " fill="#C3DBFF" transform="translate(306,10)"/>
<path d="M0 0 C6.27 0 12.54 0 19 0 C19 1.98 19 3.96 19 6 C15.04 6 11.08 6 7 6 C7 7.98 7 9.96 7 12 C9.97 12 12.94 12 16 12 C16 13.98 16 15.96 16 18 C13.03 18 10.06 18 7 18 C7 20.31 7 22.62 7 25 C10.96 25 14.92 25 19 25 C19 26.98 19 28.96 19 31 C12.73 31 6.46 31 0 31 C0 20.77 0 10.54 0 0 Z " fill="#C2DAFF" transform="translate(19,10)"/>
<path d="M0 0 C3.25074246 0.82327928 4.82220556 2.06877596 7.09765625 4.53125 C7.58488418 7.43646003 7.75678197 9.64814757 7.66015625 12.53125 C7.67111328 13.2428125 7.68207031 13.954375 7.69335938 14.6875 C7.64584358 18.08329567 7.33623925 20.18910029 5.37890625 22.99609375 C2.71548287 24.78843174 1.22606213 25.09856283 -1.96484375 25.09375 C-2.82207031 25.11566406 -3.67929688 25.13757813 -4.5625 25.16015625 C-6.90234375 24.53125 -6.90234375 24.53125 -8.68359375 22.46875 C-10.19917264 18.81581627 -10.33592154 15.9184138 -10.33984375 11.96875 C-10.35917969 10.66808594 -10.37851563 9.36742187 -10.3984375 8.02734375 C-9.90234375 4.53125 -9.90234375 4.53125 -8.12109375 2.09765625 C-5.4415861 0.20596159 -3.2442864 0.05159899 0 0 Z " fill="#C0D9FF" transform="translate(123.90234375,273.46875)"/>
<path d="M0 0 C2.9375 1.625 2.9375 1.625 5 5 C5.90985121 11.1988237 6.2327075 16.85270307 3.0625 22.375 C-0.89670838 24.47580445 -4.60752228 25.19271399 -9 24 C-11.8268552 21.53201061 -12.00137785 19.98564367 -12.36328125 16.21484375 C-12.36195977 14.78896264 -12.34457743 13.36302087 -12.3125 11.9375 C-12.31572266 11.21755859 -12.31894531 10.49761719 -12.32226562 9.75585938 C-12.28374156 5.98400291 -12.13773952 4.20660928 -10 1 C-6.36217368 -0.21260877 -3.82264001 -0.39544552 0 0 Z " fill="#C0D9FF" transform="translate(208,274)"/>
<path d="M0 0 C1.98 0 3.96 0 6 0 C6.33 6.93 6.66 13.86 7 21 C8.32 21.33 9.64 21.66 11 22 C12.61780157 20.38219843 12.22272147 18.54364482 12.31640625 16.30859375 C12.35830078 15.36435547 12.40019531 14.42011719 12.44335938 13.44726562 C12.50233398 11.95743164 12.50233398 11.95743164 12.5625 10.4375 C12.60568359 9.44041016 12.64886719 8.44332031 12.69335938 7.41601562 C12.79980298 4.9441585 12.90181928 2.4721969 13 0 C14.98 0 16.96 0 19 0 C19.08745946 3.3956697 19.14054444 6.79104773 19.1875 10.1875 C19.21263672 11.14720703 19.23777344 12.10691406 19.26367188 13.09570312 C19.35554063 21.94572693 19.35554063 21.94572693 16 26 C13.48987037 28.51012963 12.53194763 28.29721609 9.0625 28.3125 C7.74958984 28.33763672 7.74958984 28.33763672 6.41015625 28.36328125 C3.54325855 27.93115567 2.71473164 27.29526775 1 25 C-0.00005304 21.99984088 -0.11575585 20.02576244 -0.09765625 16.89453125 C-0.09443359 15.91162109 -0.09121094 14.92871094 -0.08789062 13.91601562 C-0.07951172 12.89185547 -0.07113281 11.86769531 -0.0625 10.8125 C-0.05798828 9.77673828 -0.05347656 8.74097656 -0.04882812 7.67382812 C-0.0370401 5.11582734 -0.02058515 2.55794267 0 0 Z " fill="#C1D9FF" transform="translate(195,61)"/>
<path d="M0 0 C2.31 0 4.62 0 7 0 C7.98697159 3.35191948 8.96314756 6.70689263 9.9375 10.0625 C10.35418945 11.47692383 10.35418945 11.47692383 10.77929688 12.91992188 C12.23385919 17.94955302 13.42945832 22.79290445 14 28 C12.02 28 10.04 28 8 28 C7.67 25.69 7.34 23.38 7 21 C4.69 21 2.38 21 0 21 C-0.33 23.31 -0.66 25.62 -1 28 C-2.98 28 -4.96 28 -7 28 C-6.3212527 21.80535692 -4.6957044 16.03060448 -2.9375 10.0625 C-2.51500977 8.6074707 -2.51500977 8.6074707 -2.08398438 7.12304688 C-1.39353534 4.74743409 -0.69877999 2.37317295 0 0 Z " fill="#C3DBFF" transform="translate(243,61)"/>
<path d="M0 0 C0.86625 -0.00773437 1.7325 -0.01546875 2.625 -0.0234375 C5 0.375 5 0.375 6.7890625 1.3984375 C8.71257015 4.53809838 8.43213055 7.80751429 8.375 11.375 C8.38660156 12.09945313 8.39820313 12.82390625 8.41015625 13.5703125 C8.39383255 16.51946033 8.35260214 18.79946232 6.7890625 21.3515625 C4.41946111 22.70709866 2.72162808 22.77430025 0 22.75 C-0.86625 22.75773437 -1.7325 22.76546875 -2.625 22.7734375 C-5 22.375 -5 22.375 -6.7890625 21.3515625 C-8.71257015 18.21190162 -8.43213055 14.94248571 -8.375 11.375 C-8.38660156 10.65054687 -8.39820313 9.92609375 -8.41015625 9.1796875 C-8.39383255 6.23053967 -8.35260214 3.95053768 -6.7890625 1.3984375 C-4.41946111 0.04290134 -2.72162808 -0.02430025 0 0 Z " fill="#BFD8FF" transform="translate(163,274.625)"/>
<path d="M0 0 C1.98 0 3.96 0 6 0 C7.32 4.62 8.64 9.24 10 14 C11.32 9.38 12.64 4.76 14 0 C15.98 0 17.96 0 20 0 C18.608547 9.61556329 15.84480623 18.73809271 13 28 C10.69 28 8.38 28 6 28 C4.99446119 23.89716988 3.9965189 19.79252943 3 15.6875 C2.71382812 14.52025391 2.42765625 13.35300781 2.1328125 12.15039062 C1.86210938 11.03212891 1.59140625 9.91386719 1.3125 8.76171875 C1.06113281 7.73006592 0.80976562 6.69841309 0.55078125 5.63549805 C0 3 0 3 0 0 Z " fill="#C1DAFF" transform="translate(43,61)"/>
<path d="M0 0 C6.6 0 13.2 0 20 0 C20 1.98 20 3.96 20 6 C17.69 6 15.38 6 13 6 C13 14.25 13 22.5 13 31 C11.02 31 9.04 31 7 31 C7 22.75 7 14.5 7 6 C4.69 6 2.38 6 0 6 C0 4.02 0 2.04 0 0 Z " fill="#C0D9FF" transform="translate(259,10)"/>
<path d="M0 0 C6.6 0 13.2 0 20 0 C20 1.98 20 3.96 20 6 C17.69 6 15.38 6 13 6 C13 14.25 13 22.5 13 31 C11.02 31 9.04 31 7 31 C7 22.75 7 14.5 7 6 C4.69 6 2.38 6 0 6 C0 4.02 0 2.04 0 0 Z " fill="#C0D9FF" transform="translate(57,10)"/>
<path d="M0 0 C5.94 0 11.88 0 18 0 C18 1.65 18 3.3 18 5 C16.02 5 14.04 5 12 5 C12 12.59 12 20.18 12 28 C10.02 28 8.04 28 6 28 C6 20.41 6 12.82 6 5 C4.02 5 2.04 5 0 5 C0 3.35 0 1.7 0 0 Z " fill="#C0D9FF" transform="translate(156,61)"/>
<path d="M0 0 C1.98 0 3.96 0 6 0 C6 7.26 6 14.52 6 22 C8.97 22 11.94 22 15 22 C15 23.98 15 25.96 15 28 C10.05 28 5.1 28 0 28 C0 18.76 0 9.52 0 0 Z " fill="#C1DAFF" transform="translate(280,61)"/>
<path d="M0 0 C1.98 0 3.96 0 6 0 C6 10.23 6 20.46 6 31 C4.02 31 2.04 31 0 31 C0 20.77 0 10.54 0 0 Z " fill="#BED8FF" transform="translate(99,10)"/>
<path d="M0 0 C1.98 0 3.96 0 6 0 C6 9.24 6 18.48 6 28 C4.02 28 2.04 28 0 28 C0 18.76 0 9.52 0 0 Z " fill="#C1DAFF" transform="translate(85,61)"/>
<path d="M0 0 C4.55555556 0.55555556 4.55555556 0.55555556 6 2 C6.12602054 4.10131921 6.1757922 6.20743788 6.1875 8.3125 C6.20167969 9.46363281 6.21585938 10.61476563 6.23046875 11.80078125 C6.01267006 14.82412237 5.5831811 16.46565871 4 19 C2.35 19 0.7 19 -1 19 C-2.5171199 15.96576019 -2.18439257 12.82495206 -2.1875 9.5 C-2.19974609 8.81035156 -2.21199219 8.12070312 -2.22460938 7.41015625 C-2.22988695 5.60522506 -2.12184458 3.80082158 -2 2 C-1.34 1.34 -0.68 0.68 0 0 Z " fill="#FDFEFF" transform="translate(139,16)"/>
<path d="M0 0 C1.66611905 -0.042721 3.33382885 -0.04063832 5 0 C6 1 6 1 6.125 3.5 C6 6 6 6 5 7 C3.33382885 7.04063832 1.66611905 7.042721 0 7 C0 4.69 0 2.38 0 0 Z " fill="#F7FAFF" transform="translate(122,66)"/>
</svg>
