<?xml version="1.0" encoding="UTF-8" standalone="no"?>
<!DOCTYPE svg PUBLIC "-//W3C//DTD SVG 1.1//EN" "http://www.w3.org/Graphics/SVG/1.1/DTD/svg11.dtd">
<svg width="100%" height="100%" viewBox="0 0 549 170" version="1.1" xmlns="http://www.w3.org/2000/svg" xmlns:xlink="http://www.w3.org/1999/xlink" xml:space="preserve" style="fill-rule:evenodd;clip-rule:evenodd;stroke-linejoin:round;stroke-miterlimit:1.41421;">
    <g transform="matrix(0.837259,0,0,0.837259,-727.849,-30.8112)">
        <path d="M1084.54,236.22L1095.07,236.22L1095.07,184.902L1084.41,182.665L1084.54,236.22ZM1144.48,189.508L1144.68,236.221L1155.21,236.221L1155.21,189.508L1144.48,189.508L1144.48,189.508ZM1143.63,179.243L1153.63,179.243C1153.63,179.243 1149.94,156.083 1123.1,156.083C1123.1,156.083 1104.81,153.978 1094.94,170.032L1094.94,157.795L1084.41,157.795L1084.41,172.4L1098.49,175.426C1098.49,175.426 1104.41,163.584 1123.1,164.241C1123.1,164.241 1140.34,163.978 1143.63,179.242M1163.5,179.243L1174.42,179.243C1174.42,179.243 1181.52,162.663 1198.5,163.19C1198.5,163.19 1213.5,162.927 1221,175.427L1231.53,175.032C1231.53,175.032 1221.92,156.084 1197.97,156.084C1197.97,156.084 1173.23,153.058 1163.5,179.244M1160.6,189.376L1171.52,189.376L1171.52,191.481L1225.21,191.481C1225.21,191.481 1225.87,186.481 1225.08,184.639L1234.82,183.06C1234.82,183.06 1236.79,189.376 1236.26,197.535L1170.73,197.535C1170.73,197.535 1169.81,226.615 1198.89,229.773C1198.89,229.773 1221,231.746 1224.55,211.483L1234.42,211.483C1234.42,211.483 1232.97,235.563 1198.89,236.09C1198.89,236.09 1158.1,238.062 1160.6,189.376M1256.66,139.636L1256.66,158.321L1276.92,158.321L1276.92,165.164L1256.79,165.164L1256.79,170.954L1248.37,172.533L1248.37,165.295L1230.74,165.295L1230.74,158.715L1248.24,158.715L1248.24,143.057L1256.66,139.636L1256.66,139.636ZM1247.97,181.085L1247.97,224.509C1247.97,224.509 1246.79,233.194 1261.4,235.694C1261.4,235.694 1269.29,235.957 1276.4,234.773L1276.4,227.931C1276.4,227.931 1257.45,232.273 1256.92,220.957L1256.92,179.243L1247.97,181.085L1247.97,181.085Z" style="fill:rgb(243,118,16);fill-rule:nonzero;"/>
    </g>
    <g transform="matrix(0.837259,0,0,0.837259,-727.849,-30.8112)">
        <path d="M1126.12,88.757L1099.81,88.757L1099.81,55.421L1126.91,55.157C1139.28,55.421 1151.92,55.421 1152.44,72.79C1152.97,90.16 1126.12,88.757 1126.12,88.757M1165.6,115.161C1165.6,115.161 1166.92,97.265 1142.44,92.528C1142.44,92.528 1171.39,89.896 1170.87,69.106C1170.87,69.106 1171.65,44.104 1133.76,44.104L1082.44,44.368L1082.44,145.953L1099.81,145.953L1099.81,100.16L1132.7,100.16C1132.7,100.16 1145.86,100.423 1148.23,112.266L1153.23,145.689L1171.39,145.689C1171.39,145.689 1166.13,127.793 1165.6,115.161" style="fill:rgb(41,23,110);fill-rule:nonzero;"/>
    </g>
    <g transform="matrix(0.837259,0,0,0.837259,-727.849,-30.8112)">
        <path d="M1241.57,111.213C1241.4,142.443 1215.78,139.286 1215.78,139.286C1186.66,136.655 1189.99,109.634 1189.99,109.634C1192.62,78.58 1215.95,82.264 1215.95,82.264C1244.38,81.212 1241.57,111.214 1241.57,111.214M1215.43,73.493C1215.43,73.493 1174.9,69.458 1172.8,109.986C1172.8,109.986 1169.29,146.303 1215.78,147.356C1215.78,147.356 1259.47,147.531 1258.94,109.986C1258.94,109.986 1261.92,74.546 1215.43,73.493M1266.66,75.245L1282.8,75.245L1282.8,86.825C1282.8,86.825 1293.5,72.79 1311.75,73.14C1311.75,73.14 1342.46,72.614 1343.16,104.546L1343.16,144.9L1327.19,144.9L1327.19,105.073C1327.19,105.073 1329.65,82.967 1307.37,82.441C1307.37,82.441 1285.08,81.915 1282.8,105.249L1282.8,145.601L1266.79,145.558L1266.66,75.245L1266.66,75.245ZM1414.21,112.266L1430.35,104.022L1430.35,45.246L1414.56,45.246L1414.56,88.054C1414.56,88.054 1402.98,70.511 1377.54,74.194C1377.54,74.194 1349.82,78.054 1347.54,107.529C1347.54,107.529 1345.96,125.252 1358.24,138.761L1372.28,132.093C1372.28,132.093 1363.51,123.145 1365.26,105.424C1365.26,105.424 1368.16,83.889 1387.46,82.659C1387.46,82.659 1417.06,80.422 1414.21,112.266M1430.22,106.608L1413.38,117.398C1413.38,117.398 1411.93,143.452 1379.43,137.268L1365.09,143.452C1365.09,143.452 1398.64,155.558 1414.04,132.531L1414.04,145.821L1430.62,145.821L1430.22,106.608L1430.22,106.608ZM1451.14,93.976L1460.36,93.976C1460.36,93.976 1460.36,89.896 1463.51,86.212L1451.14,93.976ZM1443.78,93.976C1443.78,93.976 1445.49,72.658 1473.51,73.579L1443.78,93.976Z" style="fill:rgb(41,23,110);fill-rule:nonzero;"/>
    </g>
    <g transform="matrix(0.837259,0,0,0.837259,-727.849,-30.8112)">
        <path d="M1473.87,138.935C1473.87,138.935 1455.27,139.459 1454.92,124.547C1454.92,124.547 1454.39,110.862 1474.57,110.161C1474.57,110.161 1487.38,109.106 1496.5,110.336C1496.5,110.336 1500.18,138.935 1473.87,138.935M1512.33,98.581C1511.41,70.027 1483.91,73.711 1483.91,73.711L1471.8,81.343C1486.01,80.159 1494.77,84.294 1496.35,90.521C1497.99,97.002 1497.46,104.503 1497.46,104.503C1497.33,104.108 1470.36,104.503 1470.36,104.503C1446.41,102.923 1440.22,118.845 1440.22,118.845C1431.54,145.558 1467.33,147.269 1467.33,147.269C1490.09,147.663 1496.28,134.636 1496.28,134.636C1497.2,137.531 1499.17,144.768 1499.17,144.768L1514.17,144.768C1511.94,134.11 1512.33,98.581 1512.33,98.581M894.566,83.872C887.116,96.737 883.2,111.347 883.216,126.214C883.216,173.016 921.157,210.956 967.958,210.956C998.205,210.956 1024.73,195.098 1039.73,171.254C1039.66,171.327 1039.6,171.408 1039.54,171.48C1039.54,171.48 982.447,160.429 894.566,83.872M1045.3,160.846C1050.18,149.956 1052.71,138.151 1052.7,126.214C1052.7,79.412 1014.76,41.473 967.958,41.473C941.609,41.473 918.086,53.513 902.544,72.377L902.604,72.441C902.604,72.441 975.384,136.641 1045.3,160.846" style="fill:rgb(41,23,110);fill-rule:nonzero;"/>
    </g>
    <g transform="matrix(0.837259,0,0,0.837259,-727.849,-30.8112)">
        <path d="M947.168,102.66C947.168,113.198 938.625,121.74 928.088,121.74C917.551,121.74 909.008,113.198 909.008,102.66C909.008,92.123 917.551,83.58 928.088,83.58C938.625,83.58 947.168,92.123 947.168,102.66" style="fill:rgb(243,118,16);fill-rule:nonzero;"/>
    </g>
</svg>
