<?xml version="1.0" encoding="UTF-8"?>
<svg version="1.1" xmlns="http://www.w3.org/2000/svg" width="549" height="170">
<path d="M0 0 C2.40441579 2.2321224 4.68772786 4.55344352 6.96386719 6.91699219 C7.62773437 7.56152344 8.29160156 8.20605469 8.97558594 8.87011719 C21.68089312 22.00369315 26.5892972 40.38718533 26.44580078 58.2253418 C26.10514946 67.342247 24.18633299 76.78802742 19.96386719 84.91699219 C12.71155677 83.58417539 6.50667633 81.21978905 -0.16113281 78.10449219 C-1.20736816 77.61803223 -2.25360352 77.13157227 -3.33154297 76.63037109 C-24.01403727 66.84974719 -43.06978179 54.62153864 -62.03613281 41.91699219 C-64.01613281 44.55699219 -65.99613281 47.19699219 -68.03613281 49.91699219 C-42.11994637 67.58125857 -15.38215813 84.08060167 14.96386719 92.91699219 C12.84193005 99.19345887 8.49699562 103.23668426 3.96386719 107.91699219 C3.35542969 108.55121094 2.74699219 109.18542969 2.12011719 109.83886719 C-11.63551907 122.99118606 -29.94286186 127.57999217 -48.45727539 127.31542969 C-68.82517796 126.62872441 -85.7674634 117.82565334 -99.72363281 103.16699219 C-112.99162064 87.76957422 -118.16781441 69.04034851 -117.03613281 48.91699219 C-115.68813245 38.53632799 -112.70776146 29.26024949 -108.03613281 19.91699219 C-102.63123762 21.43711896 -99.05120653 25.19084437 -95.03613281 28.91699219 C-94.43800781 28.15386719 -93.83988281 27.39074219 -93.22363281 26.60449219 C-91.5665395 24.56863468 -89.93315607 22.71916429 -88.03613281 20.91699219 C-88.59816406 20.67207031 -89.16019531 20.42714844 -89.73925781 20.17480469 C-92.45479135 18.6877268 -94.5000472 16.87636437 -96.78613281 14.79199219 C-97.58535156 14.06753906 -98.38457031 13.34308594 -99.20800781 12.59667969 C-99.81128906 12.04238281 -100.41457031 11.48808594 -101.03613281 10.91699219 C-88.15376078 -4.86391356 -72.20250879 -13.50835637 -51.90332031 -15.83300781 C-33.30736283 -17.03517072 -14.24622571 -12.46653799 0 0 Z " fill="#29176D" transform="translate(128.0361328125,19.0830078125)"/>
<path d="M0 0 C5.75189004 2.03308369 10.19033289 5.21328465 14 10 C14.47013834 12.41365667 14.33091947 14.325166 14.07421875 16.76171875 C13.94120131 20.77324461 15.69208061 23.81492745 18 27 C22.07945965 30.79484618 25.20637124 31.42555975 30.55859375 31.23828125 C33.15498832 31.05914975 33.15498832 31.05914975 36.17578125 30.08984375 C41.97252338 29.9536588 45.18374716 32.92470546 49.75 36.25 C51.63247232 37.55893218 53.51794776 38.86355486 55.40625 40.1640625 C56.81970703 41.14294434 56.81970703 41.14294434 58.26171875 42.14160156 C77.96906348 55.51645071 100.14040329 66.34356571 123 73 C120.87806286 79.27646668 116.53312844 83.31969207 112 88 C111.3915625 88.63421875 110.783125 89.2684375 110.15625 89.921875 C96.40061375 103.07419387 78.09327095 107.66299999 59.57885742 107.3984375 C39.21095485 106.71173222 22.26866941 97.90866116 8.3125 83.25 C-4.95548782 67.85258203 -10.13168159 49.12335632 -9 29 C-7.65199964 18.6193358 -4.67162865 9.3432573 0 0 Z " fill="#28166D" transform="translate(20,39)"/>
<path d="M0 0 C13.0246875 -0.12375 13.0246875 -0.12375 26.3125 -0.25 C29.03153564 -0.28641602 31.75057129 -0.32283203 34.55200195 -0.36035156 C36.73908705 -0.37204847 38.92618095 -0.38223791 41.11328125 -0.390625 C42.22296265 -0.41108887 43.33264404 -0.43155273 44.47595215 -0.45263672 C54.19705778 -0.45692812 63.405617 1.44618537 70.62890625 8.375 C74.4610458 12.91679502 75.64352838 17.92703513 75.40625 23.73046875 C74.51737619 28.69619648 71.98949702 32.39042746 68.09765625 35.5390625 C64.26655871 38.05390964 60.43721356 39.77976627 56 41 C57.19625 41.495 58.3925 41.99 59.625 42.5 C64.53006196 44.52968081 67.47196603 48.46881642 70 53 C71.00320593 56.30673922 71.41197728 59.56776929 71.75 63 C71.94935733 64.70877711 72.15243912 66.4171241 72.359375 68.125 C72.50342773 69.35669922 72.50342773 69.35669922 72.65039062 70.61328125 C72.98638399 72.90704602 73.47978308 75.07449128 74.078125 77.3125 C75 81 75 81 75 86 C69.72 86 64.44 86 59 86 C58.51080078 82.83857422 58.51080078 82.83857422 58.01171875 79.61328125 C57.68657196 77.56085774 57.35774591 75.50905518 57.02856445 73.45727539 C56.80270821 72.036984 56.58064918 70.61608313 56.36254883 69.19458008 C56.04737966 67.14490363 55.71837051 65.09784727 55.38671875 63.05078125 C55.09607544 61.20480347 55.09607544 61.20480347 54.79956055 59.3215332 C53.82199538 55.26053348 52.68730382 52.25807741 49.27441406 49.71337891 C46.07216881 48.7089821 42.93557323 48.64229342 39.609375 48.5859375 C38.31999023 48.55032715 37.03060547 48.5147168 35.70214844 48.47802734 C34.06793945 48.44402832 32.43373047 48.4100293 30.75 48.375 C25.5525 48.25125 20.355 48.1275 15 48 C15 60.54 15 73.08 15 86 C10.05 86 5.1 86 0 86 C0 57.62 0 29.24 0 0 Z M15 10 C15 18.91 15 27.82 15 37 C18.96567985 37.06939297 22.92978564 37.12896219 26.89575195 37.16479492 C28.89744576 37.18705458 30.89894275 37.22520146 32.90039062 37.26367188 C41.64062143 37.32971896 48.65328218 36.83867286 56.0625 32 C59.00059498 27.45069165 58.95618463 23.25901548 58 18 C56.30866654 14.37366639 54.01100906 12.42604334 50.29443359 10.85986328 C46.53936674 9.87977247 43.29366387 9.77365069 39.4140625 9.8046875 C38.71227875 9.8075174 38.010495 9.81034729 37.28744507 9.81326294 C35.06644972 9.82437488 32.84587155 9.84946166 30.625 9.875 C29.11068295 9.88504146 27.59635951 9.89416527 26.08203125 9.90234375 C22.38773444 9.92257539 18.69432905 9.96173882 15 10 Z " fill="#28166D" transform="translate(178,6)"/>
<path d="M0 0 C4.62 0 9.24 0 14 0 C14 28.05 14 56.1 14 85 C9.38 85 4.76 85 0 85 C-0.495 80.545 -0.495 80.545 -1 76 C-1.99 76.928125 -2.98 77.85625 -4 78.8125 C-10.03035616 84.4659589 -17.0965798 85.48141264 -25.0625 85.3125 C-26.2081543 85.31733398 -26.2081543 85.31733398 -27.37695312 85.32226562 C-32.26986306 85.27622456 -36.35821065 84.54726312 -41 83 C-41 82.34 -41 81.68 -41 81 C-35.00791538 77.90312934 -29.59280999 76.709054 -22.875 76.5 C-16.58035792 76.26903078 -12.2119173 75.70847962 -7 72 C-4.44151159 68.8883249 -3.07921412 66.21500977 -1.6875 62.4375 C0.50711764 57.9669826 2.81800916 56.60388109 7 54 C4.69 54.99 2.38 55.98 0 57 C-0.09796875 56.13117187 -0.1959375 55.26234375 -0.296875 54.3671875 C-1.35016355 46.24960164 -2.25525311 40.88657573 -9 35.6875 C-14.41270575 32.64285302 -19.87390182 32.22617707 -26 33 C-31.15206902 34.75009624 -34.26675714 37.79022152 -37 42.4375 C-40.09216464 49.46038241 -40.47474645 57.48081989 -38.08984375 64.7890625 C-37.05099049 67.15677139 -37.05099049 67.15677139 -35.875 69.23046875 C-35 71 -35 71 -35 74 C-36.5725165 74.89429374 -38.15853741 75.76487427 -39.75 76.625 C-40.63171875 77.11226563 -41.5134375 77.59953125 -42.421875 78.1015625 C-45 79 -45 79 -47.19921875 78.3046875 C-52.74567753 74.28621194 -54.79326941 67.45904718 -56 61 C-57.00185157 50.47452322 -55.65381626 42.58818957 -49.875 33.75 C-42.79181877 26.97478317 -34.91572269 23.06489284 -25.0859375 22.97265625 C-14.76959462 23.48194406 -8.91017741 26.40818549 -1 33 C-0.67 22.11 -0.34 11.22 0 0 Z " fill="#28166D" transform="translate(456,7)"/>
<path d="M0 0 C5.91603473 4.72407949 8.41084069 9.8668648 10.55078125 17 C11.48508807 26.34306824 10.60445712 34.76914354 5.23828125 42.75 C-0.87270162 50.20058256 -9.84328678 54.02855592 -19.19921875 55.5 C-30.96856316 56.477385 -42.47710139 55.36901234 -52.2265625 48.23828125 C-58.34036621 42.85087006 -61.79795261 36.96058642 -62.53515625 28.765625 C-62.78887681 17.55200831 -61.22492218 8.68333692 -53.328125 0.2578125 C-38.94771922 -11.61591705 -14.91090939 -10.17014069 0 0 Z M-40.01953125 4.94140625 C-46.07680187 11.50091288 -47.79040876 19.10064473 -47.47265625 27.86328125 C-46.81821421 34.17397232 -45.06783321 38.02505425 -40.38671875 42.375 C-33.83162683 47.5881981 -27.41570094 48.41034888 -19.19921875 47.5 C-14.12357732 46.14535246 -11.13220296 43.88341748 -8.26171875 39.5 C-3.92982066 31.98158704 -3.86122735 21.99723324 -5.8828125 13.69140625 C-7.80943224 8.95080249 -10.43716991 4.73103863 -15.19921875 2.5 C-23.80103061 0.36080595 -32.58705659 -0.94396531 -40.01953125 4.94140625 Z " fill="#28166D" transform="translate(316.19921875,37.5)"/>
<path d="M0 0 C5.50396034 4.29775172 8.25045627 8.7626681 9.80859375 15.59375 C10.44956402 22.61088665 10.18620688 29.68317328 10.05859375 36.71875 C10.03849978 38.64841898 10.02025414 40.57810815 10.00390625 42.5078125 C9.9601361 47.20362888 9.89126843 51.89846403 9.80859375 56.59375 C5.18859375 56.59375 0.56859375 56.59375 -4.19140625 56.59375 C-4.20598877 55.44898193 -4.22057129 54.30421387 -4.2355957 53.12475586 C-4.29381386 48.85475303 -4.37104453 44.58526462 -4.45385742 40.31567383 C-4.48699651 38.47200912 -4.51506238 36.62824564 -4.5378418 34.78442383 C-4.57159137 32.12538792 -4.62391591 29.46724813 -4.6796875 26.80859375 C-4.68607742 25.99164536 -4.69246735 25.17469696 -4.6990509 24.33299255 C-4.85934315 18.0143137 -6.01226201 13.18148378 -10.19140625 8.21875 C-13.98152278 5.13928032 -17.87098454 5.27243043 -22.546875 5.29296875 C-26.05547986 5.69202721 -28.58428826 6.94036889 -31.59765625 8.71875 C-33.19140625 9.59375 -33.19140625 9.59375 -35.19140625 9.59375 C-35.87760656 10.91713632 -36.53927086 12.25324948 -37.19140625 13.59375 C-37.53606934 14.28041748 -37.88073242 14.96708496 -38.23583984 15.67456055 C-39.54540454 19.67519036 -39.54702631 23.42776812 -39.60546875 27.61328125 C-39.6248349 28.47185226 -39.64420105 29.33042328 -39.66415405 30.2150116 C-39.72372181 32.94532474 -39.77024359 35.67568057 -39.81640625 38.40625 C-39.85460704 40.26238773 -39.89366 42.11850812 -39.93359375 43.97460938 C-40.02940452 48.51418144 -40.11351946 53.05383646 -40.19140625 57.59375 C-45.14140625 57.59375 -50.09140625 57.59375 -55.19140625 57.59375 C-55.19140625 37.79375 -55.19140625 17.99375 -55.19140625 -2.40625 C-50.24140625 -2.40625 -45.29140625 -2.40625 -40.19140625 -2.40625 C-40.19140625 -0.09625 -40.19140625 2.21375 -40.19140625 4.59375 C-39.71832031 4.19542969 -39.24523437 3.79710937 -38.7578125 3.38671875 C-27.57551373 -5.57219898 -12.55401762 -8.05605409 0 0 Z " fill="#28166D" transform="translate(387.19140625,34.40625)"/>
<path d="M0 0 C5.44147693 2.26046316 8.38023355 5.94716447 10.703125 11.30078125 C12.01042178 16.19957882 11.92753738 21.15998524 12.01953125 26.1953125 C12.04031235 27.14266769 12.06109344 28.09002289 12.08250427 29.06608582 C12.14770278 32.08174635 12.20674632 35.09749135 12.265625 38.11328125 C12.30883848 40.16211799 12.35245366 42.21094629 12.39648438 44.25976562 C12.50335366 49.27335172 12.60470431 54.28702248 12.703125 59.30078125 C8.413125 59.30078125 4.123125 59.30078125 -0.296875 59.30078125 C-1.286875 57.32078125 -2.276875 55.34078125 -3.296875 53.30078125 C-3.7815625 53.71070313 -4.26625 54.120625 -4.765625 54.54296875 C-12.93314352 61.1083971 -20.98608131 62.33058925 -31.296875 61.30078125 C-39.8526887 59.40518181 -45.10498018 56.87583049 -50.171875 49.61328125 C-51.77356946 44.89718091 -51.74534085 41.07263068 -50.296875 36.30078125 C-46.64072728 30.36079331 -41.88868077 26.44985924 -35.05786133 24.74047852 C-31.74960539 24.21362654 -28.5964068 24.18886835 -25.24609375 24.203125 C-24.58728714 24.20453995 -23.92848053 24.2059549 -23.24971008 24.20741272 C-21.16121738 24.21297625 -19.07283489 24.22552178 -16.984375 24.23828125 C-15.56185051 24.24330097 -14.13932434 24.24786305 -12.71679688 24.25195312 C-9.24345423 24.26293368 -5.77017539 24.2801729 -2.296875 24.30078125 C-2.40106908 22.53173888 -2.52134412 20.76363854 -2.6484375 18.99609375 C-2.71369629 18.01141113 -2.77895508 17.02672852 -2.84619141 16.01220703 C-3.12694755 13.02018045 -3.12694755 13.02018045 -5.671875 10.17578125 C-9.57105747 7.39065091 -12.80231919 7.09069405 -17.484375 6.73828125 C-18.57105469 6.65449219 -19.65773438 6.57070313 -20.77734375 6.484375 C-21.60878906 6.42378906 -22.44023437 6.36320312 -23.296875 6.30078125 C-23.296875 5.64078125 -23.296875 4.98078125 -23.296875 4.30078125 C-15.77579079 -2.14353168 -9.22802488 -2.80921165 0 0 Z M-35.296875 36.11328125 C-36.81397311 39.43193336 -36.79455315 41.69261469 -36.296875 45.30078125 C-34.04641749 48.80884736 -32.28218952 50.80812399 -28.546875 52.67578125 C-21.86713228 53.96034716 -16.13974215 54.14539776 -10.08984375 50.6796875 C-5.93384659 47.48346311 -3.64510673 43.65422883 -2.87670898 38.46118164 C-2.80782471 37.49172607 -2.73894043 36.52227051 -2.66796875 35.5234375 C-2.59376709 34.5425415 -2.51956543 33.56164551 -2.44311523 32.55102539 C-2.39485596 31.80844482 -2.34659668 31.06586426 -2.296875 30.30078125 C-5.96326748 30.18349999 -9.6291702 30.11317234 -13.296875 30.05078125 C-14.32683594 30.01726563 -15.35679687 29.98375 -16.41796875 29.94921875 C-24.02478411 29.85231664 -29.47096005 30.83354583 -35.296875 36.11328125 Z " fill="#28166D" transform="translate(527.296875,31.69921875)"/>
<path d="M0 0 C0.495 6.435 0.495 6.435 1 13 C-17.15 13 -35.3 13 -54 13 C-50.82494581 26.55731167 -50.82494581 26.55731167 -41.375 35.4375 C-35.10034907 38.34243098 -28.51451891 39.22838729 -21.74609375 37.38671875 C-15.42446139 34.66373859 -12.96358607 29.92717214 -10 24 C-7.03 24 -4.06 24 -1 24 C-1.36214017 29.91495613 -2.84693101 33.70336813 -7 38 C-16.42949408 45.4921976 -27.43332187 46.10738765 -39 45 C-47.147368 43.25562762 -53.59517858 38.58308023 -58.53515625 31.93359375 C-63.63853087 23.61643219 -64.31321653 14.55310401 -64 5 C-60.37 5 -56.74 5 -53 5 C-53 5.66 -53 6.32 -53 7 C-38.48 7 -23.96 7 -9 7 C-9.495 4.03 -9.495 4.03 -10 1 C-6.46315341 0.19157792 -3.72159473 0 0 0 Z " fill="#F3750F" transform="translate(307,122)"/>
<path d="M0 0 C3.16756589 2.14154998 5.10760454 4.83630283 6.796875 8.21484375 C7.37813769 13.06360464 7.88379479 18.02219933 5.66796875 22.4921875 C2.00581089 27.01490465 -1.56922262 28.80234672 -7.37109375 29.4609375 C-12.82622749 29.76247756 -15.98246254 28.94473151 -20.203125 25.21484375 C-24.30893442 19.77742047 -25.55498936 16.01755466 -25.203125 9.21484375 C-24.02511272 4.7169787 -21.70045734 2.22417623 -18.203125 -0.78515625 C-11.91331018 -4.26110655 -6.06877399 -3.30489437 0 0 Z " fill="#F07411" transform="translate(58.203125,41.78515625)"/>
<path d="M0 0 C5.34011488 4.29506014 8.97821137 9.7958297 9.81640625 16.7109375 C6.51640625 16.7109375 3.21640625 16.7109375 -0.18359375 16.7109375 C-0.77140625 15.3496875 -0.77140625 15.3496875 -1.37109375 13.9609375 C-3.83304333 9.54640722 -6.40606041 7.50095232 -10.99609375 5.4609375 C-17.94752713 3.82530612 -23.90588333 4.30691377 -30.18359375 7.7109375 C-31.46661999 8.82201177 -32.73722181 9.94756858 -33.99609375 11.0859375 C-36.68240546 13.27359255 -37.62544362 13.76416506 -41.1328125 13.4296875 C-44.18359375 12.5859375 -44.18359375 12.5859375 -49.18359375 10.7109375 C-49.18359375 6.4209375 -49.18359375 2.1309375 -49.18359375 -2.2890625 C-46.21359375 -2.2890625 -43.24359375 -2.2890625 -40.18359375 -2.2890625 C-39.85359375 0.0209375 -39.52359375 2.3309375 -39.18359375 4.7109375 C-38.79429687 4.31261719 -38.405 3.91429688 -38.00390625 3.50390625 C-27.91166032 -6.05349715 -11.99102677 -7.07878145 0 0 Z " fill="#F3750F" transform="translate(229.18359375,103.2890625)"/>
<path d="M0 0 C3.61800425 3.02004957 6.85093641 6.43566256 9.625 10.25 C9.625 10.58 9.625 10.91 9.625 11.25 C6.27124535 11.89642981 3.04607271 12.38032658 -0.375 12.25 C-2.5 10.0625 -2.5 10.0625 -4.375 7.25 C-9.46142417 3.6671839 -15.1660471 1.97815443 -21.375 2.25 C-27.1282995 3.43852439 -31.22034182 6.19196178 -35.375 10.25 C-35.7875 11.178125 -36.2 12.10625 -36.625 13.0625 C-38.375 15.25 -38.375 15.25 -40.77734375 15.5625 C-43.32847228 15.5625 -45.83350707 15.46457257 -48.375 15.25 C-47.97681709 8.87907336 -43.36767411 4.1404857 -38.9375 -0.0625 C-27.41363325 -7.65138786 -11.47755127 -8.22337964 0 0 Z " fill="#F3750F" transform="translate(294.375,104.75)"/>
<path d="M0 0 C0.33 12.87 0.66 25.74 1 39 C5.95 39.66 10.9 40.32 16 41 C16 42.98 16 44.96 16 47 C11.07486396 49.46256802 3.52915103 48.80127758 -1.6015625 47.17578125 C-6.6456077 44.7087846 -6.6456077 44.7087846 -8 42 C-8.08711775 38.93757679 -8.1154846 35.89813535 -8.09765625 32.8359375 C-8.0962413 31.92872955 -8.09482635 31.02152161 -8.09336853 30.08682251 C-8.08776096 27.18284845 -8.07520718 24.27895085 -8.0625 21.375 C-8.05748598 19.40885528 -8.0529229 17.44270935 -8.04882812 15.4765625 C-8.03778906 10.6510121 -8.02051935 5.82551903 -8 1 C-5.10765685 0.17361624 -3.11257569 0 0 0 Z " fill="#F3750F" transform="translate(325,119)"/>
<path d="M0 0 C9 1 9 1 10 2 C10.09268999 3.35094982 10.11747326 4.70667091 10.11352539 6.06079102 C10.11344986 6.92160782 10.11337433 7.78242462 10.11329651 8.66932678 C10.10813522 9.60473801 10.10297394 10.54014923 10.09765625 11.50390625 C10.0962413 12.45692123 10.09482635 13.40993622 10.09336853 14.39183044 C10.08775152 17.44875165 10.07519616 20.50560077 10.0625 23.5625 C10.05748719 25.62955624 10.05292391 27.69661362 10.04882812 29.76367188 C10.03777656 34.84247588 10.02050055 39.9212257 10 45 C6.7 45 3.4 45 0 45 C0 30.15 0 15.3 0 0 Z " fill="#F4760E" transform="translate(180,122)"/>
<path d="M0 0 C0 4.95 0 9.9 0 15 C5.61 15 11.22 15 17 15 C17 17.31 17 19.62 17 22 C11.39 22 5.78 22 0 22 C0 23.65 0 25.3 0 27 C-3.96 27.495 -3.96 27.495 -8 28 C-8 26.02 -8 24.04 -8 22 C-12.95 22 -17.9 22 -23 22 C-23 20.02 -23 18.04 -23 16 C-18.05 16 -13.1 16 -8 16 C-8 11.38 -8 6.76 -8 2 C-3 0 -3 0 0 0 Z " fill="#F2750F" transform="translate(325,86)"/>
<path d="M0 0 C3.3 0 6.6 0 10 0 C10 13.2 10 26.4 10 40 C6.7 40 3.4 40 0 40 C0 26.8 0 13.6 0 0 Z " fill="#F37610" transform="translate(230,127)"/>
<path d="M0 0 C-1.16352223 3.49056668 -1.8980945 3.87427697 -4.89453125 5.8125 C-5.68537109 6.33070312 -6.47621094 6.84890625 -7.29101562 7.3828125 C-8.12310547 7.91648437 -8.95519531 8.45015625 -9.8125 9 C-11.44461096 10.06157728 -13.07614094 11.12404841 -14.70703125 12.1875 C-15.79721558 12.88939453 -15.79721558 12.88939453 -16.90942383 13.60546875 C-19.0544951 14.98224419 -19.0544951 14.98224419 -21.08081055 16.73828125 C-22.03080933 17.36283203 -22.03080933 17.36283203 -23 18 C-23.99 17.67 -24.98 17.34 -26 17 C-23.73507312 10.88469742 -21.70564977 6.59244615 -16 3 C-10.72477825 0.87788311 -5.72973422 -0.45234744 0 0 Z " fill="#28166C" transform="translate(506,30)"/>
<path d="M0 0 C0.66 0.33 1.32 0.66 2 1 C1.01 2.98 0.02 4.96 -1 7 C-3.64 7 -6.28 7 -9 7 C-6.25604436 4.05278838 -3.61662784 1.80831392 0 0 Z " fill="#27166A" transform="translate(496,41)"/>
</svg>
