<?xml version="1.0" encoding="UTF-8"?>
<svg version="1.1" xmlns="http://www.w3.org/2000/svg" width="512" height="512">
<path d="M0 0 C1.45108658 0.00273422 1.45108658 0.00273422 2.93148804 0.00552368 C17.26440977 0.05095174 31.21023917 0.55983928 45.3125 3.3125 C46.65803955 3.55395752 46.65803955 3.55395752 48.03076172 3.80029297 C96.71843124 12.61028149 141.74255908 36.05356547 177.3125 70.3125 C178.3015332 71.26068604 178.3015332 71.26068604 179.31054688 72.22802734 C188.79880305 81.37247479 197.5387044 90.66984009 205.3125 101.3125 C206.17056152 102.46355017 207.02863451 103.61459177 207.88671875 104.765625 C213.92427396 112.95525981 219.30707302 121.45788276 224.3125 130.3125 C224.7146875 131.01971191 225.116875 131.72692383 225.53125 132.45556641 C238.54775099 155.57510937 247.281052 180.72419753 252.625 206.6875 C252.77235596 207.39801514 252.91971191 208.10853027 253.0715332 208.84057617 C256.05794017 224.48291051 256.68730954 240.11926093 256.625 256 C256.62226578 257.45108658 256.62226578 257.45108658 256.61947632 258.93148804 C256.57404826 273.26440977 256.06516072 287.21023917 253.3125 301.3125 C253.15152832 302.20952637 252.99055664 303.10655273 252.82470703 304.03076172 C244.01471851 352.71843124 220.57143453 397.74255908 186.3125 433.3125 C185.68037598 433.97185547 185.04825195 434.63121094 184.39697266 435.31054688 C175.25252521 444.79880305 165.95515991 453.5387044 155.3125 461.3125 C154.16144983 462.17056152 153.01040823 463.02863451 151.859375 463.88671875 C143.66974019 469.92427396 135.16711724 475.30707302 126.3125 480.3125 C125.60528809 480.7146875 124.89807617 481.116875 124.16943359 481.53125 C101.04989063 494.54775099 75.90080247 503.281052 49.9375 508.625 C49.22698486 508.77235596 48.51646973 508.91971191 47.78442383 509.0715332 C32.14208949 512.05794017 16.50573907 512.68730954 0.625 512.625 C-0.34239105 512.62317719 -1.3097821 512.62135437 -2.30648804 512.61947632 C-16.63940977 512.57404826 -30.58523917 512.06516072 -44.6875 509.3125 C-45.58452637 509.15152832 -46.48155273 508.99055664 -47.40576172 508.82470703 C-96.09343124 500.01471851 -141.11755908 476.57143453 -176.6875 442.3125 C-177.34685547 441.68037598 -178.00621094 441.04825195 -178.68554688 440.39697266 C-188.17380305 431.25252521 -196.9137044 421.95515991 -204.6875 411.3125 C-205.54556152 410.16144983 -206.40363451 409.01040823 -207.26171875 407.859375 C-213.29927396 399.66974019 -218.68207302 391.16711724 -223.6875 382.3125 C-224.0896875 381.60528809 -224.491875 380.89807617 -224.90625 380.16943359 C-237.92275099 357.04989063 -246.656052 331.90080247 -252 305.9375 C-252.22103394 304.87172729 -252.22103394 304.87172729 -252.4465332 303.78442383 C-255.43294017 288.14208949 -256.06230954 272.50573907 -256 256.625 C-255.99817719 255.65760895 -255.99635437 254.6902179 -255.99447632 253.69351196 C-255.94904826 239.36059023 -255.44016072 225.41476083 -252.6875 211.3125 C-252.44604248 209.96696045 -252.44604248 209.96696045 -252.19970703 208.59423828 C-243.38971851 159.90656876 -219.94643453 114.88244092 -185.6875 79.3125 C-185.05537598 78.65314453 -184.42325195 77.99378906 -183.77197266 77.31445312 C-174.62752521 67.82619695 -165.33015991 59.0862956 -154.6875 51.3125 C-153.53644983 50.45443848 -152.38540823 49.59636549 -151.234375 48.73828125 C-143.04474019 42.70072604 -134.54211724 37.31792698 -125.6875 32.3125 C-124.98028809 31.9103125 -124.27307617 31.508125 -123.54443359 31.09375 C-100.42489063 18.07724901 -75.27580247 9.343948 -49.3125 4 C-48.24672729 3.77896606 -48.24672729 3.77896606 -47.15942383 3.5534668 C-31.51708949 0.56705983 -15.88073907 -0.06230954 0 0 Z " fill="#939091" transform="translate(255.6875,-0.3125)"/>
<path d="M0 0 C0.76885529 0.00310181 1.53771057 0.00620361 2.3298645 0.00939941 C13.56093638 0.06248693 24.59759851 0.37172005 35.6875 2.25 C36.40631348 2.35763672 37.12512695 2.46527344 37.86572266 2.57617188 C82.84632406 9.39988428 122.41791245 31.84530897 154.6875 63.25 C155.55117188 64.07371094 156.41484375 64.89742188 157.3046875 65.74609375 C172.47834091 80.47346323 185.00992804 98.50582568 194.6875 117.25 C195.02056152 117.87567871 195.35362305 118.50135742 195.69677734 119.14599609 C205.78313582 138.23294333 212.33111105 159.95127906 215.6875 181.25 C215.86265137 182.32910645 216.03780273 183.40821289 216.21826172 184.52001953 C217.66753975 194.23364826 218.0106938 203.69682122 217.9375 213.5 C217.93373352 214.26957031 217.92996704 215.03914062 217.92608643 215.83203125 C217.76472462 244.0097455 213.16112355 270.95291642 202.6875 297.25 C202.40793457 297.95656738 202.12836914 298.66313477 201.84033203 299.39111328 C193.75597459 319.5099783 182.05300625 337.26923387 168.6875 354.25 C164.61039591 352.62986997 161.87836438 349.712619 158.85546875 346.6484375 C158.30063309 346.09314362 157.74579742 345.53784973 157.17414856 344.96572876 C156.00101211 343.78957558 154.83030271 342.61099724 153.66186523 341.43017578 C151.89674266 339.64696546 150.12391977 337.87171976 148.34960938 336.09765625 C147.20525974 334.94838389 146.06136541 333.79865797 144.91796875 332.6484375 C144.3979277 332.12728363 143.87788666 331.60612976 143.34208679 331.06918335 C140.6529679 328.34623251 138.0878361 325.56923102 135.60864258 322.65356445 C130.88510451 317.20755245 125.6926658 312.22596597 120.54585266 307.18601418 C117.39353714 304.09515368 114.25690358 300.98841438 111.1171875 297.88476562 C107.13721002 293.95281727 103.15274988 290.02569512 99.15332031 286.11352539 C95.90334008 282.93364441 92.66807796 279.73943815 89.44224548 276.53507042 C88.2131637 275.31959022 86.97868062 274.10954683 85.73878479 272.90509987 C84.01298826 271.22738166 82.30658281 269.53204096 80.60351562 267.83129883 C80.08727631 267.33820221 79.57103699 266.84510559 79.03915405 266.33706665 C77.64611816 264.92341614 77.64611816 264.92341614 75.6875 262.25 C75.86350533 258.56076466 77.26342493 255.87779143 78.9375 252.625 C87.07053913 234.8888097 89.96751699 214.27626813 84.6875 195.25 C84.44257813 194.32832031 84.19765625 193.40664062 83.9453125 192.45703125 C80.14095592 179.71412006 73.57341135 168.11933236 64.6875 158.25 C63.80191406 157.22519531 63.80191406 157.22519531 62.8984375 156.1796875 C49.23761715 141.35624414 27.18687998 131.84675768 7.1796875 130.8671875 C-9.41003473 130.5045305 -24.57092991 133.10520766 -39.15625 141.39453125 C-41.79232993 142.44036731 -42.67640064 142.19384562 -45.3125 141.25 C-46.99249268 139.92404175 -46.99249268 139.92404175 -48.66894531 138.21826172 C-49.30350647 137.58024628 -49.93806763 136.94223083 -50.59185791 136.28488159 C-51.26795105 135.59016754 -51.94404419 134.89545349 -52.640625 134.1796875 C-53.3484613 133.46523468 -54.05629761 132.75078186 -54.7855835 132.01467896 C-57.05175249 129.72509693 -59.30756377 127.42564114 -61.5625 125.125 C-63.80478025 122.84746529 -66.0492353 120.57213874 -68.29656982 118.29959106 C-69.69348491 116.88593261 -71.08728833 115.46918979 -72.47735596 114.04879761 C-75.58007531 110.89929267 -78.71173404 107.85985304 -82.07128906 104.98461914 C-87.67057308 100.15635567 -92.81982286 94.86641715 -98.03125 89.62890625 C-99.14060833 88.51767877 -100.25019067 87.40667488 -101.35998535 86.29588318 C-104.25552616 83.39655629 -107.14804907 80.49423728 -110.03991699 77.59124756 C-113.00132864 74.61953694 -115.96563554 71.65071733 -118.9296875 68.68164062 C-124.7267681 62.8738918 -130.5206582 57.06297327 -136.3125 51.25 C-135.24806311 48.05668934 -134.7985212 47.57707738 -132.2421875 45.6484375 C-131.60079834 45.1627832 -130.95940918 44.67712891 -130.29858398 44.17675781 C-129.60192627 43.66467773 -128.90526855 43.15259766 -128.1875 42.625 C-127.46828369 42.09229492 -126.74906738 41.55958984 -126.00805664 41.01074219 C-119.60881909 36.34070651 -113.00845959 32.15831438 -106.10986328 28.27050781 C-104.41192934 27.30645404 -102.73447125 26.30659266 -101.05859375 25.3046875 C-70.69936636 7.92640438 -34.77367786 -0.25075019 0 0 Z " fill="#F1F1F1" transform="translate(254.3125,39.75)"/>
<path d="M0 0 C4.17258919 1.63687603 6.96425073 4.69330968 10.05078125 7.8203125 C10.62781296 8.39780243 11.20484467 8.97529236 11.79936218 9.57028198 C13.01957662 10.79351367 14.23736351 12.01917105 15.45288086 13.24707031 C17.2904276 15.10271027 19.13568538 16.95038537 20.98242188 18.796875 C22.17234452 19.9917201 23.36181182 21.18701887 24.55078125 22.3828125 C25.09269608 22.92584015 25.6346109 23.4688678 26.19294739 24.02835083 C28.94229298 26.81097232 31.57121072 29.64423355 34.10620117 32.6237793 C38.76324692 37.99562741 43.87982562 42.90953718 48.95645142 47.8787899 C52.05201938 50.91288013 55.13188547 53.96287319 58.21484375 57.00976562 C62.1223949 60.86928768 66.03443024 64.72397559 69.96142578 68.5637207 C73.1530528 71.68524583 76.32995563 74.82109504 79.49743652 77.96711159 C80.70418985 79.16026444 81.91634382 80.34798051 83.13391113 81.53009605 C84.82858131 83.17668367 86.5038398 84.84088156 88.17578125 86.51049805 C88.68266983 86.99424393 89.18955841 87.47798981 89.71180725 87.97639465 C91.0793457 89.36454773 91.0793457 89.36454773 93 92 C92.81697585 96.15809182 90.9410586 99.4785843 89.125 103.1875 C79.89343074 122.80181741 79.1511698 145.26640434 86.16552734 165.76416016 C94.84702384 189.02488131 110.44070642 205.72020766 132.75 216.375 C153.22414664 225.35576177 176.02973958 225.69214793 197 218 C200.56580901 216.51331203 204.01834496 214.84687346 207.43359375 213.0390625 C210.36582312 211.85188897 211.10669111 211.93490352 214 213 C215.67999268 214.32595825 215.67999268 214.32595825 217.35644531 216.03173828 C217.99100647 216.66975372 218.62556763 217.30776917 219.27935791 217.96511841 C219.95545105 218.65983246 220.63154419 219.35454651 221.328125 220.0703125 C222.0359613 220.78476532 222.74379761 221.49921814 223.4730835 222.23532104 C225.73925249 224.52490307 227.99506377 226.82435886 230.25 229.125 C232.49228025 231.40253471 234.7367353 233.67786126 236.98406982 235.95040894 C238.38098491 237.36406739 239.77478833 238.78081021 241.16485596 240.20120239 C244.26757531 243.35070733 247.39923404 246.39014696 250.75878906 249.26538086 C256.35807308 254.09364433 261.50732286 259.38358285 266.71875 264.62109375 C267.82810833 265.73232123 268.93769067 266.84332512 270.04748535 267.95411682 C272.94302616 270.85344371 275.83554907 273.75576272 278.72741699 276.65875244 C281.68882864 279.63046306 284.65313554 282.59928267 287.6171875 285.56835938 C293.4142681 291.3761082 299.2081582 297.18702673 305 303 C303.93556311 306.19331066 303.4860212 306.67292262 300.9296875 308.6015625 C299.96772461 309.33004395 299.96772461 309.33004395 298.98632812 310.07324219 C298.28958984 310.58532227 297.59285156 311.09740234 296.875 311.625 C296.15505859 312.15770508 295.43511719 312.69041016 294.69335938 313.23925781 C277.90302555 325.48312766 259.35923467 334.5761462 240 342 C238.824375 342.45246094 237.64875 342.90492188 236.4375 343.37109375 C203.87367862 355.03737351 166.06891386 357.45851218 132 352 C131.29214355 351.89236328 130.58428711 351.78472656 129.85498047 351.67382812 C94.56439341 346.05526828 60.65715013 330.41373849 33 308 C32.12730469 307.33097656 31.25460938 306.66195313 30.35546875 305.97265625 C17.56636024 295.9829628 5.73463904 283.96811317 -4 271 C-4.47324707 270.38672852 -4.94649414 269.77345703 -5.43408203 269.14160156 C-19.1100883 251.36917413 -29.50631496 232.12980476 -37 211 C-37.28069336 210.21028809 -37.56138672 209.42057617 -37.85058594 208.60693359 C-42.03274103 196.61956679 -44.9240215 184.51815035 -47 172 C-47.11859375 171.31808594 -47.2371875 170.63617188 -47.359375 169.93359375 C-51.54191902 144.88812184 -50.19038322 117.72417458 -45 93 C-44.81276367 92.09765625 -44.62552734 91.1953125 -44.43261719 90.265625 C-40.63475343 72.52914212 -34.46719431 55.83642488 -25.96875 39.82714844 C-25.03807341 38.07180983 -24.12794941 36.30562101 -23.21875 34.5390625 C-16.71503868 22.09332402 -8.6575319 10.99932332 0 0 Z " fill="#F1F1F1" transform="translate(89,118)"/>
<path d="M0 0 C22.11 0 44.22 0 67 0 C67 8.58 67 17.16 67 26 C70.96 26 74.92 26 79 26 C82.21875 27.03125 82.21875 27.03125 84.5 28.5 C85.66015625 29.19609375 85.66015625 29.19609375 86.84375 29.90625 C91.36770496 34.29907583 93.43722866 39.66330982 93.53497362 45.96824551 C93.52605073 46.67876599 93.51712785 47.38928648 93.50793457 48.12133789 C93.51417453 48.89840371 93.5204145 49.67546953 93.52684355 50.4760828 C93.54269394 53.0585902 93.53020113 55.64014324 93.51757812 58.22265625 C93.5230028 60.08275906 93.53012739 61.94285758 93.53881836 63.802948 C93.55701355 68.84014854 93.54999986 73.87702043 93.53730202 78.91422653 C93.52715466 84.19290789 93.53657252 89.47156165 93.54284668 94.75024414 C93.55011802 103.61382077 93.54054882 112.47726396 93.52148438 121.34082031 C93.49971667 131.57923992 93.5067684 141.81734087 93.52879 152.05575275 C93.54695859 160.85599394 93.54949517 169.65613936 93.53903532 178.45639324 C93.53280844 183.70813404 93.53194265 188.9597252 93.54518127 194.2114563 C93.55676035 199.14952592 93.54867636 204.08718584 93.52560425 209.02521133 C93.52032816 210.83436529 93.52181205 212.6435539 93.53065491 214.45269394 C93.5416379 216.92847761 93.52781485 219.40296061 93.50793457 221.87866211 C93.51685746 222.5891826 93.52578034 223.29970308 93.53497362 224.03175449 C93.45110799 229.44141863 91.88393402 233.5157936 89 238 C83.85198673 242.83601247 77.5818679 244.71418737 70.73828125 245.7734375 C67.59228949 244.88484068 67.1435046 244.22586683 65.1394043 241.75512695 C60.37555784 236.1516681 55.1077294 231.07640007 49.85835266 225.93601418 C46.70603714 222.84515368 43.56940358 219.73841438 40.4296875 216.63476562 C36.44971002 212.70281727 32.46524988 208.77569512 28.46582031 204.86352539 C25.21584008 201.68364441 21.98057796 198.48943815 18.75474548 195.28507042 C17.5256637 194.06959022 16.29118062 192.85954683 15.05128479 191.65509987 C13.32548826 189.97738166 11.61908281 188.28204096 9.91601562 186.58129883 C9.14165665 185.8416539 9.14165665 185.8416539 8.35165405 185.08706665 C6.95861816 183.67341614 6.95861816 183.67341614 5 181 C5.17600533 177.31076466 6.57592493 174.62779143 8.25 171.375 C16.38303913 153.6388097 19.28001699 133.02626813 14 114 C13.75507813 113.07832031 13.51015625 112.15664062 13.2578125 111.20703125 C9.45345592 98.46412006 2.88591135 86.86933236 -6 77 C-6.59039062 76.31679687 -7.18078125 75.63359375 -7.7890625 74.9296875 C-21.44988285 60.10624414 -43.50062002 50.59675768 -63.5078125 49.6171875 C-80.09753473 49.2545305 -95.25842991 51.85520766 -109.84375 60.14453125 C-112.48345553 61.19180573 -113.36034649 60.94905935 -116 60 C-117.73382568 58.63366699 -117.73382568 58.63366699 -119.48339844 56.87304688 C-120.14378113 56.21566528 -120.80416382 55.55828369 -121.48455811 54.88098145 C-122.18574768 54.16744507 -122.88693726 53.45390869 -123.609375 52.71875 C-124.33618469 51.99006714 -125.06299438 51.26138428 -125.81182861 50.51062012 C-127.34503069 48.97069908 -128.87463234 47.42718615 -130.40087891 45.88037109 C-132.74777617 43.50225341 -135.10523866 41.13503412 -137.46484375 38.76953125 C-138.95114769 37.27406025 -140.43684604 35.77798708 -141.921875 34.28125 C-142.6311615 33.56771362 -143.340448 32.85417725 -144.07122803 32.11901855 C-144.71900208 31.46163696 -145.36677612 30.80425537 -146.03417969 30.12695312 C-146.60835632 29.54594849 -147.18253296 28.96494385 -147.77410889 28.36633301 C-149 27 -149 27 -149 26 C-99.83 26 -50.66 26 0 26 C0 17.42 0 8.84 0 0 Z " fill="#CCCCCC" transform="translate(325,121)"/>
<path d="M0 0 C1.99816437 1.96983604 3.99792001 3.93795261 5.99951172 5.90429688 C11.85935959 11.66640146 17.70415209 17.44352941 23.54040337 23.22953033 C27.06666729 26.72435419 30.59838044 30.21329862 34.14257812 33.68994141 C37.57843924 37.06075013 40.99955674 40.44588614 44.41083145 43.84156799 C45.71261491 45.13225634 47.01967226 46.4176476 48.33199692 47.69761658 C50.16110097 49.48333709 51.97072933 51.28678745 53.77685547 53.09570312 C54.32428909 53.62156509 54.87172272 54.14742706 55.43574524 54.68922424 C56.91403198 56.19250488 56.91403198 56.19250488 59 59 C58.85742583 63.1570182 56.94009813 66.48054585 55.125 70.1875 C45.89343074 89.80181741 45.1511698 112.26640434 52.16552734 132.76416016 C60.84702384 156.02488131 76.44070642 172.72020766 98.75 183.375 C119.22414664 192.35576177 142.02973958 192.69214793 163 185 C166.56580901 183.51331203 170.01834496 181.84687346 173.43359375 180.0390625 C176.36919968 178.85052189 177.10380451 178.92957536 180 180 C181.73382568 181.36633301 181.73382568 181.36633301 183.48339844 183.12695312 C184.47397247 184.11302551 184.47397247 184.11302551 185.48455811 185.11901855 C186.53634247 186.18932312 186.53634247 186.18932312 187.609375 187.28125 C188.33618469 188.00993286 189.06299438 188.73861572 189.81182861 189.48937988 C191.34503069 191.02930092 192.87463234 192.57281385 194.40087891 194.11962891 C196.74777617 196.49774659 199.10523866 198.86496588 201.46484375 201.23046875 C202.95114769 202.72593975 204.43684604 204.22201292 205.921875 205.71875 C206.6311615 206.43228638 207.340448 207.14582275 208.07122803 207.88098145 C209.0428891 208.86705383 209.0428891 208.86705383 210.03417969 209.87304688 C210.60835632 210.45405151 211.18253296 211.03505615 211.77410889 211.63366699 C213 213 213 213 213 214 C184.10739495 214.11413281 155.21481655 214.20258432 126.32203034 214.25532665 C122.90877832 214.26157997 119.49552674 214.2680516 116.08227539 214.2746582 C115.40277602 214.27596976 114.72327664 214.27728131 114.02318638 214.2786326 C103.02963536 214.30037235 92.03621545 214.33978589 81.04274214 214.38576398 C69.75727702 214.43256862 58.47187725 214.45992973 47.18631023 214.47044247 C40.84948968 214.47695912 34.51296623 214.49226814 28.17624092 214.52865028 C22.20988287 214.56262792 16.24394386 214.57304913 10.27749825 214.56553841 C8.08979006 214.56691213 5.90206763 214.57683368 3.71444321 214.59602737 C0.72180184 214.62099262 -2.2692681 214.61489201 -5.26194763 214.60127258 C-6.55332859 214.62311889 -6.55332859 214.62311889 -7.87079805 214.64540654 C-14.20728262 214.56773307 -18.88464422 212.76783317 -24 209 C-28.53683485 204.01343566 -29.14882086 198.96862195 -29.14717102 192.47993469 C-29.15268605 191.32074415 -29.15268605 191.32074415 -29.1583125 190.13813561 C-29.16935338 187.5404073 -29.17319387 184.94271898 -29.17700195 182.3449707 C-29.18326633 180.48560967 -29.18991311 178.62624989 -29.19691467 176.76689148 C-29.21432736 171.7088464 -29.22487733 166.65081078 -29.2331202 161.59274316 C-29.23827015 158.43259215 -29.24434591 155.27244408 -29.25063133 152.11229515 C-29.26968479 142.22486497 -29.2839152 132.33744226 -29.2922433 122.44999725 C-29.3020151 111.03690747 -29.32833253 99.62401167 -29.36874419 88.21099025 C-29.39890709 79.38964464 -29.41371237 70.56835462 -29.41702431 61.74695843 C-29.41937472 56.47834145 -29.42833392 51.20993167 -29.45348549 45.94137001 C-29.47677398 40.98289754 -29.48099624 36.02476856 -29.47072411 31.06625557 C-29.47022882 29.24902453 -29.47654723 27.43177654 -29.49028015 25.61459732 C-29.50801897 23.12764997 -29.5008838 20.64193271 -29.48774719 18.15498352 C-29.49871644 17.44105244 -29.50968568 16.72712135 -29.52098733 15.99155599 C-29.44523485 10.02447513 -27.60235642 4.78532707 -23.50922948 0.404414 C-19.12764722 -3.47043459 -13.68117033 -4.20320638 -8.0859375 -5.2265625 C-3.82321742 -4.9136033 -2.89643904 -3.08300522 0 0 Z " fill="#CBCBCB" transform="translate(123,151)"/>
<path d="M0 0 C16.98822821 14.24478763 29.43051549 34.7331291 31.515625 57.109375 C32.93013226 77.68184658 28.3393365 94.67366652 19.515625 113.109375 C16.7505379 110.34949522 13.99290637 107.58275944 11.24609375 104.8046875 C5.82783546 99.33779407 0.44378023 93.92737783 -5.42578125 88.94140625 C-8.22929464 86.44643892 -10.88869449 83.82020127 -13.546875 81.171875 C-14.02979004 80.69347168 -14.51270508 80.21506836 -15.01025391 79.72216797 C-17.68890801 77.03266546 -20.23258847 74.26793875 -22.70509338 71.38745117 C-26.30689024 67.25805388 -30.09621077 63.36277363 -33.98022461 59.5 C-34.69325745 58.78682114 -35.40629028 58.07364227 -36.14093018 57.33885193 C-38.47049418 55.00997798 -40.80356726 52.68465438 -43.13671875 50.359375 C-44.7636111 48.73435005 -46.39028108 47.10910245 -48.01673889 45.48364258 C-52.27729707 41.22688417 -56.54085089 36.97313871 -60.80505371 32.72003174 C-65.16418074 28.37117368 -69.52044288 24.01944792 -73.87695312 19.66796875 C-82.40997242 11.14564193 -90.94616188 2.62649808 -99.484375 -5.890625 C-70.4205141 -28.34941743 -27.40985706 -21.1728836 0 0 Z " fill="#999999" transform="translate(310.484375,188.890625)"/>
<path d="M0 0 C5.33848403 4.45601156 10.2969879 9.16462084 15.19506836 14.09741211 C15.98303299 14.88683701 16.77099762 15.6762619 17.58283997 16.48960876 C19.28356318 18.19412024 20.98313074 19.89978544 22.68165398 21.60648918 C25.37461781 24.31228348 28.07075151 27.01488317 30.76771545 29.71669006 C36.97925189 35.94059119 43.18612284 42.16913415 49.39273834 48.39794159 C55.53755851 54.56462428 61.68438597 60.72928833 67.83462715 66.89056587 C70.48214555 69.54453541 73.12661732 72.20151486 75.77098083 74.85862732 C77.40568353 76.49696507 79.04052822 78.13516117 80.67553711 79.77319336 C81.40253815 80.50536072 82.12953918 81.23752808 82.87857056 81.99188232 C86.86641985 85.98013855 90.94774113 89.78572873 95.24091434 93.44440556 C98.01677199 95.8991517 100.47139141 98.61490419 102.9375 101.375 C107.80886585 106.74219299 112.82171272 111.92620731 118 117 C118.66 117.66 119.32 118.32 120 119 C98.90626858 129.09589628 76.31111263 135.4691126 53 129 C52.07832031 128.75507813 51.15664062 128.51015625 50.20703125 128.2578125 C37.47611796 124.45703786 25.84754123 117.89510201 16 109 C14.86498047 108.00419922 14.86498047 108.00419922 13.70703125 106.98828125 C-1.46235143 92.86326227 -11.36970672 71.18432632 -12.3828125 50.4921875 C-12.78924845 31.89979947 -8.74707709 16.44450493 0 0 Z " fill="#999999" transform="translate(182,211)"/>
<path d="M0 0 C1.06371826 0.00757324 2.12743652 0.01514648 3.22338867 0.02294922 C10.83355991 0.18289299 17.30260275 1.01106276 24.1875 4.4375 C25.11175781 4.86160156 26.03601563 5.28570312 26.98828125 5.72265625 C41.60704457 12.98148894 51.63236866 25.21684711 57.1875 40.4375 C61.70210931 55.44993579 61.52769216 70.32722769 54.1875 84.4375 C51.17361927 83.08691886 49.0840323 81.58145225 46.76171875 79.2421875 C46.12943359 78.60796875 45.49714844 77.97375 44.84570312 77.3203125 C44.19537109 76.65773438 43.54503906 75.99515625 42.875 75.3125 C41.9169043 74.3534375 41.9169043 74.3534375 40.93945312 73.375 C37.91523502 70.32320544 35.00634023 67.228244 32.21582031 63.96142578 C27.06671999 58.05304074 21.46165175 52.58796437 15.91015625 47.0625 C14.73166817 45.88588076 13.55340347 44.70903775 12.37535095 43.53198242 C9.29847192 40.45889193 6.2186001 37.38881845 3.13806152 34.31939697 C-0.01461573 31.17701326 -3.16440669 28.03173929 -6.31445312 24.88671875 C-12.47767254 18.73417193 -18.64406165 12.58481438 -24.8125 6.4375 C-17.19319286 0.59012475 -9.41037212 -0.09348789 0 0 Z " fill="#CBCBCC" transform="translate(255.8125,196.5625)"/>
<path d="M0 0 C4.66449026 3.89646004 9.08282434 7.94440731 13.35913086 12.26147461 C13.95202408 12.85582809 14.5449173 13.45018158 15.15577698 14.06254578 C16.43088746 15.34143409 17.7048425 16.62147532 18.97773552 17.90257072 C20.99857656 19.93629155 23.02262639 21.96677047 25.04750061 23.99647522 C30.07454579 29.03682013 35.09612296 34.0826013 40.11785889 39.12823486 C44.36901459 43.39920391 48.6222682 47.66806318 52.87826729 51.93420601 C54.8610259 53.92339197 56.84071985 55.91559266 58.82029724 57.90794373 C66.90006206 66.04786984 66.90006206 66.04786984 75.55030823 73.57154846 C77.22492775 75.22163221 78.06207412 76.85834662 79 79 C65.21787089 86.1694914 50.53734706 86.63022258 35.93359375 82.03515625 C20.62398449 76.6668517 8.37707884 66.48324801 1 52 C-6.16543345 36.83639353 -7.58398536 20.33518426 -1.97265625 4.40625 C-1 2 -1 2 0 0 Z " fill="#CBCBCC" transform="translate(202,231)"/>
<path d="M0 0 C21.45 0 42.9 0 65 0 C65 8.58 65 17.16 65 26 C43.55 26 22.1 26 0 26 C0 17.42 0 8.84 0 0 Z " fill="#999999" transform="translate(326,121)"/>
<path d="M0 0 C2.8125 2.3125 2.8125 2.3125 5 5 C5.763125 5.845625 6.52625 6.69125 7.3125 7.5625 C10.35993504 13.77023804 9.72353184 20.24153484 8 26.8125 C4.86114263 31.81505394 0.67766457 36.10744514 -5 38 C-18.17296088 39.32231755 -18.17296088 39.32231755 -23.625 35.375 C-28.01025792 31.40291413 -31.58155313 26.86205881 -32.23828125 20.80078125 C-32.45051134 13.68548809 -31.30679342 8.52620152 -26.3515625 3.2421875 C-18.24878684 -4.08215556 -9.83327035 -4.62959998 0 0 Z " fill="#999999" transform="translate(157,305)"/>
</svg>
